SplineFontDB: 3.2
FontName: BloomingGroveBold
FullName: Blooming Grove Bold
FamilyName: BloomingGroveBold
Weight: Bold
Copyright: Created by Nathan Eady, using Inkscape (http://www.inkscape.org) and FontForge 2.0 (http://fontforge.sf.net).  This font has been released into the public domain by the author.
Version: 006.000
ItalicAngle: 0
UnderlinePosition: -125
UnderlineWidth: 50
Ascent: 750
Descent: 250
InvalidEm: 0
sfntRevision: 0x00060000
LayerCount: 2
Layer: 0 0 "Back" 1
Layer: 1 0 "Fore" 0
XUID: [1021 700 1229584016 6802]
StyleMap: 0x0020
FSType: 8
OS2Version: 3
OS2_WeightWidthSlopeOnly: 0
OS2_UseTypoMetrics: 0
CreationTime: 1251430800
ModificationTime: 1653184625
PfmFamily: 17
TTFWeight: 500
TTFWidth: 5
LineGap: 90
VLineGap: 0
Panose: 2 0 8 3 0 0 0 0 0 0
OS2TypoAscent: 750
OS2TypoAOffset: 0
OS2TypoDescent: -250
OS2TypoDOffset: 0
OS2TypoLinegap: 90
OS2WinAscent: 922
OS2WinAOffset: 0
OS2WinDescent: 385
OS2WinDOffset: 0
HheadAscent: 922
HheadAOffset: 0
HheadDescent: -385
HheadDOffset: 0
OS2SubXSize: 650
OS2SubYSize: 699
OS2SubXOff: 0
OS2SubYOff: 140
OS2SupXSize: 650
OS2SupYSize: 699
OS2SupXOff: 0
OS2SupYOff: 479
OS2StrikeYSize: 49
OS2StrikeYPos: 258
OS2CapHeight: 795
OS2XHeight: 413
OS2Vendor: 'PfEd'
OS2CodePages: 00000001.00000000
OS2UnicodeRanges: 00000003.00000008.00000000.00000000
MarkAttachClasses: 1
DEI: 91125
LangName: 1033 "" "" "" "FontForge : Blooming Grove Bold : 15-10-2009"
Encoding: UnicodeBmp
Compacted: 1
UnicodeInterp: none
NameList: AGL For New Fonts
DisplaySize: -48
AntiAlias: 1
FitToEm: 0
WinInfo: 0 16 7
BeginPrivate: 8
BlueValues 22 [-2 1 414 417 796 797]
OtherBlues 11 [-385 -384]
BlueShift 2 12
StdHW 4 [88]
StdVW 4 [88]
StemSnapH 27 [7 42 62 88 93 116 141 244]
StemSnapV 4 [88]
ForceBold 4 true
EndPrivate
TeXData: 1 0 0 446693 223346 148897 433062 1048576 148897 783286 444596 497025 792723 393216 433062 380633 303038 157286 324010 404750 52429 2506097 1059062 262144
BeginChars: 65536 106

StartChar: uni0000
Encoding: 0 -1 0
AltUni2: 000000.ffffffff.0
Width: 1000
Flags: HW
HStem: -1 42<263.067 736.933> 751 42<263.067 736.933>
VStem: 207.5 41<54.6315 737.369> 750.5 42<54.567 737.433>
LayerCount: 2
Fore
SplineSet
305.5 793 m 2
 694.5 793 l 2
 748.5 793 792.5 749 792.5 695 c 2
 792.5 97 l 2
 792.5 43 748.5 -1 694.5 -1 c 2
 305.5 -1 l 2
 251.5 -1 207.5 43 207.5 97 c 2
 207.5 695 l 2
 207.5 749 251.5 793 305.5 793 c 2
694.5 751 m 2
 305.5 751 l 2
 274.5 751 248.5 726 248.5 695 c 2
 248.5 97 l 2
 248.5 66 274.5 41 305.5 41 c 2
 694.5 41 l 2
 725.5 41 750.5 66 750.5 97 c 2
 750.5 695 l 2
 750.5 726 725.5 751 694.5 751 c 2
EndSplineSet
EndChar

StartChar: exclam
Encoding: 33 33 2
Width: 1000
Flags: HW
HStem: -32 62<486.272 513.728> 58 62<486.272 513.728>
VStem: 424 62<30.2721 57.7279> 456 89<184.44 787.56> 514 62<30.2721 57.7279>
LayerCount: 2
Fore
SplineSet
500 794 m 0xd0
 525 794 545 774 545 750 c 2
 545 222 l 2
 545 198 525 178 500 178 c 0
 475 178 456 198 456 222 c 2
 456 750 l 2
 456 774 475 794 500 794 c 0xd0
500 120 m 0
 542 120 576 86 576 44 c 0
 576 2 542 -32 500 -32 c 0
 458 -32 424 2 424 44 c 0xe8
 424 86 458 120 500 120 c 0
500 58 m 0
 492 58 486 52 486 44 c 0
 486 36 492 30 500 30 c 0
 508 30 514 36 514 44 c 0
 514 52 508 58 500 58 c 0
EndSplineSet
EndChar

StartChar: quotedbl
Encoding: 34 34 3
Width: 1000
Flags: HW
HStem: 549 244<386.207 462.519 537.207 613.519>
VStem: 380 89<555.44 786.56> 531 89<555.44 786.56>
LayerCount: 2
Fore
SplineSet
424 793 m 0
 449 793 469 773 469 749 c 2
 469 593 l 2
 469 569 449 549 424 549 c 0
 399 549 380 569 380 593 c 2
 380 749 l 2
 380 773 399 793 424 793 c 0
575 793 m 0
 600 793 620 773 620 749 c 2
 620 593 l 2
 620 569 600 549 575 549 c 0
 550 549 531 569 531 593 c 2
 531 749 l 2
 531 773 550 793 575 793 c 0
EndSplineSet
EndChar

StartChar: numbersign
Encoding: 35 35 4
Width: 1000
Flags: HW
HStem: -1 21G<386.5 411.5 588.5 613.5> 162 88<197.895 352.277 444.83 555.17 646.83 802.105> 360 88<197.895 352.277 444.83 555.17 646.83 802.105>
VStem: 354 89<5.43994 160.17 251.83 358.17 449.83 604.56> 557 88<4.89471 160.17 251.83 358.17 449.83 605.105>
LayerCount: 2
Fore
SplineSet
399 611 m 0
 424 611 443 591 443 567 c 2
 443 478 l 2
 443 464 459 448 473 448 c 2
 527 448 l 2
 541 448 557 464 557 478 c 2
 557 567 l 2
 557 591 576 611 601 611 c 0
 626 611 645 591 645 567 c 2
 645 478 l 2
 645 464 661 448 675 448 c 2
 764 448 l 2
 788 448 808 429 808 404 c 0
 808 379 788 360 764 360 c 2
 675 360 l 2
 661 360 645 344 645 330 c 2
 645 280 l 2
 645 266 661 250 675 250 c 2
 764 250 l 2
 788 250 808 231 808 206 c 0
 808 181 788 162 764 162 c 2
 675 162 l 2
 661 162 645 146 645 132 c 2
 645 43 l 2
 645 19 626 -1 601 -1 c 0
 576 -1 557 19 557 43 c 2
 557 132 l 2
 557 146 541 162 527 162 c 2
 473 162 l 2
 459 162 443 146 443 132 c 2
 443 43 l 2
 443 19 424 -1 399 -1 c 0
 374 -1 354 19 354 43 c 2
 354 132 l 2
 354 146 339 162 325 162 c 2
 236 162 l 2
 212 162 192 181 192 206 c 0
 192 231 212 250 236 250 c 2
 325 250 l 2
 339 250 354 266 354 280 c 2
 354 330 l 2
 354 344 339 360 325 360 c 2
 236 360 l 2
 212 360 192 379 192 404 c 0
 192 429 212 448 236 448 c 2
 325 448 l 2
 339 448 354 464 354 478 c 2
 354 567 l 2
 354 591 374 611 399 611 c 0
473 360 m 2
 459 360 443 344 443 330 c 2
 443 280 l 2
 443 266 459 250 473 250 c 2
 527 250 l 2
 541 250 557 266 557 280 c 2
 557 330 l 2
 557 344 541 360 527 360 c 2
 473 360 l 2
EndSplineSet
EndChar

StartChar: dollar
Encoding: 36 36 5
Width: 1000
Flags: HW
HStem: -1 89<480.5 522.5> 709 89<480.5 522.5>
VStem: 251.5 89<539.296 667.204> 271.5 89<139.406 243.56> 392.5 88<-42.1053 -1 125 359 512 694 798 840.105> 522.5 88<-42.1053 -1 105 283 437 669 798 840.105> 640.5 88<552.895 657.655> 659.5 89<130.668 257.655>
LayerCount: 2
Fore
SplineSet
436.5 846 m 0xec
 461.5 846 480.5 826 480.5 802 c 2
 480.5 798 l 1
 522.5 798 l 1
 522.5 802 l 2
 522.5 826 541.5 846 566.5 846 c 0
 591.5 846 610.5 826 610.5 802 c 2
 610.5 779 l 1
 679.5 747 728.5 677 728.5 597 c 2
 728.5 591 l 2
 728.5 567 709.5 547 684.5 547 c 0
 659.5 547 640.5 567 640.5 591 c 0xee
 640.5 621 628.5 648 610.5 669 c 1
 610.5 386 l 1
 653.5 361 l 1
 709.5 327 748.5 266 748.5 194 c 0
 748.5 106 690.5 30 610.5 7 c 1
 610.5 -4 l 2
 610.5 -28 591.5 -48 566.5 -48 c 0
 541.5 -48 522.5 -28 522.5 -4 c 2
 522.5 -1 l 1
 480.5 -1 l 1
 480.5 -4 l 2
 480.5 -28 461.5 -48 436.5 -48 c 0
 411.5 -48 392.5 -28 392.5 -4 c 2
 392.5 17 l 1
 347.5 37 271.5 92 271.5 206 c 0
 271.5 230 290.5 250 315.5 250 c 0
 340.5 250 360.5 230 360.5 206 c 0xdd
 360.5 175 372.5 146 392.5 125 c 1
 392.5 410 l 1
 346.5 436 l 1
 290.5 470 251.5 531 251.5 603 c 0
 251.5 692 311.5 769 392.5 791 c 1
 392.5 802 l 2
 392.5 826 411.5 846 436.5 846 c 0xec
522.5 709 m 1
 480.5 709 l 1
 480.5 461 l 1
 522.5 437 l 1
 522.5 709 l 1
392.5 694 m 1
 361.5 676 340.5 642 340.5 603 c 0
 340.5 584 345.5 542 392.5 512 c 1
 392.5 694 l 1
480.5 359 m 1
 480.5 88 l 1
 494.5 88 508.5 88 522.5 88 c 1
 522.5 335 l 1
 480.5 359 l 1
610.5 283 m 1
 610.5 105 l 1
 639.5 124 659.5 157 659.5 194 c 0xcd
 659.5 210 655.5 254 610.5 283 c 1
EndSplineSet
EndChar

StartChar: percent
Encoding: 37 37 6
Width: 1000
Flags: HW
HStem: -2 89<617.032 712.241> 219 88<617.032 712.241> 487 88<288.032 382.968> 707 89<288.032 382.968>
VStem: 180.5 89<593.578 688.468> 401.5 89<593.578 688.468> 509.5 89<105.532 200.422> 731.5 88<106.075 199.879>
LayerCount: 2
Fore
SplineSet
335.5 796 m 0
 421.5 796 490.5 727 490.5 641 c 0
 490.5 555 421.5 487 335.5 487 c 0
 249.5 487 180.5 555 180.5 641 c 0
 180.5 727 249.5 796 335.5 796 c 0
295.5 -2 m 0
 269.5 -2 250.5 19 250.5 41 c 0
 250.5 49 252.5 57 256.5 64 c 2
 666.5 774 l 2
 675.5 790 689.5 797 702.5 797 c 0
 726.5 797 749.5 776 749.5 751 c 0
 749.5 744 747.5 737 743.5 730 c 2
 333.5 19 l 2
 325.5 5 310.5 -2 295.5 -2 c 0
335.5 707 m 0
 299.5 707 269.5 677 269.5 641 c 0
 269.5 605 299.5 575 335.5 575 c 0
 371.5 575 401.5 605 401.5 641 c 0
 401.5 677 371.5 707 335.5 707 c 0
664.5 307 m 0
 750.5 307 819.5 239 819.5 153 c 0
 819.5 67 750.5 -2 664.5 -2 c 0
 578.5 -2 509.5 67 509.5 153 c 0
 509.5 239 578.5 307 664.5 307 c 0
664.5 219 m 0
 628.5 219 598.5 189 598.5 153 c 0
 598.5 117 628.5 87 664.5 87 c 0
 700.5 87 731.5 117 731.5 153 c 0
 731.5 189 700.5 219 664.5 219 c 0
EndSplineSet
EndChar

StartChar: ampersand
Encoding: 38 38 7
Width: 1000
Flags: HW
HStem: -3 88<406.842 552.248> 709 88<396.497 518.311>
VStem: 254.5 89<149.195 295.157> 269.5 88<548.926 670.003> 556.5 89<547.693 670.003>
LayerCount: 2
Fore
SplineSet
745.5 41 m 0xd8
 745.5 18 725.5 -3 700.5 -3 c 0
 687.5 -3 674.5 3 665.5 14 c 2
 633.5 57 l 1
 593.5 19 538.5 -3 479.5 -3 c 0
 355.5 -3 254.5 98 254.5 222 c 0
 254.5 291 286.5 358 343.5 401 c 2xe8
 365.5 418 l 1
 307.5 495 l 2
 283.5 526 269.5 567 269.5 609 c 0
 269.5 713 353.5 797 457.5 797 c 0
 561.5 797 645.5 713 645.5 609 c 0
 645.5 586 641.5 512 567.5 457 c 2
 489.5 399 l 1
 615.5 230 l 1
 613.5 264 599.5 295 576.5 318 c 0
 568.5 327 563.5 338 563.5 349 c 0
 563.5 373 584.5 393 608.5 393 c 0
 619.5 393 630.5 389 638.5 381 c 0
 679.5 340 704.5 284 704.5 222 c 0
 704.5 191 697.5 161 686.5 134 c 1
 736.5 67 l 2
 742.5 59 745.5 50 745.5 41 c 0xd8
457.5 709 m 0
 402.5 709 357.5 664 357.5 609 c 0xd8
 357.5 603 357.5 581 376.5 552 c 1
 436.5 470 l 1
 514.5 528 l 2
 542.5 550 556.5 577 556.5 609 c 0
 556.5 664 512.5 709 457.5 709 c 0
418.5 346 m 1
 399.5 332 l 2
 363.5 306 343.5 266 343.5 222 c 0xe8
 343.5 147 404.5 85 479.5 85 c 0
 519.5 85 554.5 102 579.5 129 c 1
 418.5 346 l 1
EndSplineSet
EndChar

StartChar: quotesingle
Encoding: 39 39 8
Width: 1000
Flags: HW
HStem: 551 244<461.707 538.019>
VStem: 455.5 89<557.44 788.56>
LayerCount: 2
Fore
SplineSet
544.5 595 m 2
 544.5 571 524.5 551 499.5 551 c 0
 474.5 551 455.5 571 455.5 595 c 2
 455.5 751 l 2
 455.5 775 474.5 795 499.5 795 c 0
 524.5 795 544.5 775 544.5 751 c 2
 544.5 595 l 2
EndSplineSet
EndChar

StartChar: parenleft
Encoding: 40 40 9
Width: 1000
Flags: HW
VStem: 379.5 89<145.337 635.663>
LayerCount: 2
Fore
SplineSet
576.5 872 m 0
 594.5 872 620.5 858 620.5 829 c 0
 620.5 812 610.5 797 594.5 787 c 0
 515.5 737 468.5 620 468.5 501 c 2
 468.5 280 l 2
 468.5 161 515.5 44 594.5 -6 c 0
 613.5 -18 620.5 -33 620.5 -48 c 0
 620.5 -71 602.5 -91 577.5 -91 c 0
 536.5 -91 379.5 34 379.5 280 c 2
 379.5 501 l 2
 379.5 648 442.5 801 560.5 869 c 0
 563.5 871 569.5 872 576.5 872 c 0
EndSplineSet
EndChar

StartChar: parenright
Encoding: 41 41 10
Width: 1000
Flags: HW
VStem: 531.5 89<146.265 635.663>
LayerCount: 2
Fore
SplineSet
379.5 829 m 0
 379.5 858 406.5 872 424.5 872 c 0
 431.5 872 437.5 871 440.5 869 c 0
 558.5 801 620.5 648 620.5 501 c 2
 620.5 280 l 2
 620.5 37 465.5 -91 423.5 -91 c 0
 398.5 -91 379.5 -71 379.5 -48 c 0
 379.5 -33 387.5 -18 405.5 -6 c 0
 484.5 44 531.5 161 531.5 280 c 2
 531.5 501 l 2
 531.5 620 484.5 737 405.5 787 c 0
 389.5 797 379.5 812 379.5 829 c 0
EndSplineSet
EndChar

StartChar: asterisk
Encoding: 42 42 11
Width: 1000
Flags: HW
HStem: 390 88<346.642 422.105 578.053 653.242> 505 88<299.44 456 545 700.56> 621 88<347.207 422.793 577.895 654.105>
VStem: 341 87<396.207 471.793 626.895 703.105> 456 89<348.44 505 593 749.56> 571 89<396.167 470.56 627.053 702.242>
LayerCount: 2
Fore
SplineSet
501 756 m 0
 526 756 545 736 545 712 c 2
 545 608 l 2
 545 601 552 593 559 593 c 2
 663 593 l 2
 687 593 707 575 707 550 c 0
 707 525 687 505 663 505 c 2
 559 505 l 2
 552 505 545 497 545 490 c 2
 545 386 l 2
 545 362 526 342 501 342 c 0
 476 342 456 362 456 386 c 2
 456 490 l 2
 456 497 448 505 441 505 c 2
 337 505 l 2
 313 505 293 525 293 550 c 0
 293 575 313 593 337 593 c 2
 441 593 l 2
 448 593 456 601 456 608 c 2
 456 712 l 2
 456 736 476 756 501 756 c 0
385 709 m 0
 410 709 429 689 429 665 c 0
 429 641 410 621 385 621 c 0
 360 621 341 641 341 665 c 0
 341 689 360 709 385 709 c 0
616 709 m 0
 640 709 660 690 660 665 c 0
 660 640 640 620 616 620 c 0
 592 620 572 640 572 665 c 0
 572 690 592 709 616 709 c 0
384 478 m 0
 408 478 428 459 428 434 c 0
 428 409 408 390 384 390 c 0
 360 390 341 409 341 434 c 0
 341 459 360 478 384 478 c 0
616 477 m 0
 641 477 660 457 660 433 c 0
 660 409 641 390 616 390 c 0
 591 390 571 409 571 433 c 0
 571 457 591 477 616 477 c 0
EndSplineSet
EndChar

StartChar: plus
Encoding: 43 43 12
Width: 1000
Flags: HW
HStem: 245 88<299.44 456 545 700.56>
VStem: 456 89<88.4399 245 333 489.56>
LayerCount: 2
Fore
SplineSet
501 496 m 0
 526 496 545 476 545 452 c 2
 545 348 l 2
 545 341 552 333 559 333 c 2
 663 333 l 2
 687 333 707 315 707 290 c 0
 707 265 687 245 663 245 c 2
 559 245 l 2
 552 245 545 237 545 230 c 2
 545 126 l 2
 545 102 526 82 501 82 c 0
 476 82 456 102 456 126 c 2
 456 230 l 2
 456 237 448 245 441 245 c 2
 337 245 l 2
 313 245 293 265 293 290 c 0
 293 315 313 333 337 333 c 2
 441 333 l 2
 448 333 456 341 456 348 c 2
 456 452 l 2
 456 476 476 496 501 496 c 0
EndSplineSet
EndChar

StartChar: comma
Encoding: 44 44 13
Width: 1000
Flags: HW
HStem: -107 141<432 526.871> -107 93<408.781 467.696> 62 62<509.272 535.288>
VStem: 447 62<34.1422 61.7279> 536 63<35.014 61.7279>
LayerCount: 2
Fore
SplineSet
444 -107 m 0xb8
 420 -106 401 -86 401 -62 c 0
 401 -14 449 -21 467 -14 c 0x78
 469 -13 470 -12 470 -11 c 0
 470 -4 447 13 447 48 c 0
 447 90 481 124 523 124 c 0
 565 124 599 90 599 48 c 0
 599 -38 530 -107 444 -107 c 0xb8
523 62 m 0
 515 62 509 56 509 48 c 0
 509 40 515 34 523 34 c 0xb8
 531 34 536 40 536 48 c 0
 536 56 531 62 523 62 c 0
EndSplineSet
EndChar

StartChar: hyphen
Encoding: 45 45 14
Width: 1000
Flags: HW
HStem: 245 88<299.44 700.56>
LayerCount: 2
Fore
SplineSet
707 290 m 0
 707 265 687 245 663 245 c 2
 337 245 l 2
 313 245 293 265 293 290 c 0
 293 315 313 333 337 333 c 2
 663 333 l 2
 687 333 707 315 707 290 c 0
EndSplineSet
EndChar

StartChar: period
Encoding: 46 46 15
Width: 1000
Flags: HW
HStem: -28 62<486.272 513.728> 62 62<486.272 513.728>
VStem: 424 62<34.2721 61.7279> 514 62<34.2721 61.7279>
LayerCount: 2
Fore
SplineSet
500 124 m 0
 542 124 576 90 576 48 c 0
 576 6 542 -28 500 -28 c 0
 458 -28 424 6 424 48 c 0
 424 90 458 124 500 124 c 0
500 62 m 0
 492 62 486 56 486 48 c 0
 486 40 492 34 500 34 c 0
 508 34 514 40 514 48 c 0
 514 56 508 62 500 62 c 0
EndSplineSet
EndChar

StartChar: slash
Encoding: 47 47 16
Width: 1000
Flags: HW
HStem: -2 21G<282.5 303> 776 20G<697 717.5>
LayerCount: 2
Fore
SplineSet
704.5 796 m 0
 730.5 796 749.5 774 749.5 752 c 0
 749.5 745 747.5 737 743.5 730 c 2
 333.5 19 l 2
 325.5 5 310.5 -2 295.5 -2 c 0
 269.5 -2 250.5 20 250.5 42 c 0
 250.5 50 252.5 57 256.5 64 c 2
 666.5 774 l 2
 674.5 788 689.5 796 704.5 796 c 0
EndSplineSet
EndChar

StartChar: zero
Encoding: 48 48 17
Width: 1000
Flags: HW
HStem: -3 88<433.966 567.25> 707 88<432.943 567.25>
VStem: 293 89<137.228 655.665> 618 89<137.734 654.266>
LayerCount: 2
Fore
SplineSet
500 795 m 0
 614 795 707 702 707 588 c 2
 707 204 l 2
 707 90 614 -3 500 -3 c 0
 386 -3 294 90 293 203 c 1
 293 590 l 2
 293 703 387 795 500 795 c 0
500 707 m 0
 435 707 382 654 382 589 c 2
 382 204 l 2
 382 139 435 85 500 85 c 0
 565 85 618 138 618 203 c 2
 618 589 l 2
 618 654 565 707 500 707 c 0
451 295 m 0
 427 295 406 316 406 340 c 0
 406 351 410 362 419 371 c 2
 527 478 l 2
 536 487 547 491 558 491 c 0
 582 491 602 470 602 446 c 0
 602 435 597 423 589 415 c 2
 482 308 l 2
 474 300 462 295 451 295 c 0
EndSplineSet
EndChar

StartChar: one
Encoding: 49 49 18
Width: 1000
Flags: HW
HStem: -2 89<338.94 455.5 544.5 661.06> 777 20G<454 511.5>
VStem: 333.5 89<567.249 683.745> 455.5 89<87 694>
LayerCount: 2
Fore
SplineSet
422.5 631 m 0
 422.5 613 432.5 598 432.5 582 c 0
 432.5 556 409.5 536 386.5 536 c 0
 371.5 536 355.5 545 346.5 566 c 0
 338.5 586 333.5 607 333.5 630 c 0
 333.5 721 408.5 797 499.5 797 c 0
 523.5 797 544.5 777 544.5 753 c 2
 544.5 87 l 1
 623.5 87 l 2
 647.5 87 667.5 68 667.5 43 c 0
 667.5 18 647.5 -2 623.5 -2 c 2
 376.5 -2 l 2
 352.5 -2 332.5 18 332.5 43 c 0
 332.5 68 352.5 87 376.5 87 c 2
 455.5 87 l 1
 455.5 694 l 1
 435.5 680 422.5 657 422.5 631 c 0
EndSplineSet
EndChar

StartChar: two
Encoding: 50 50 19
Width: 1000
Flags: HW
HStem: -3 88<388.307 700.56> 709 89<432.75 567.25>
VStem: 293 89<89.1098 163.287 565.015 657.266> 618 89<522.807 658.25>
LayerCount: 2
Fore
SplineSet
420 85 m 2
 663 85 l 2
 687 85 707 67 707 42 c 0
 707 17 687 -3 663 -3 c 2
 420 -3 l 2
 350 -3 293 54 293 124 c 0
 293 156 305 185 324 207 c 2
 591 516 l 2
 617 546 618 575 618 591 c 0
 618 656 565 709 500 709 c 0
 435 709 382 656 382 591 c 0
 382 573 354 557 329 557 c 0
 310 557 293 566 293 591 c 0
 293 705 386 798 500 798 c 0
 614 798 707 705 707 591 c 0
 707 538 689 494 661 461 c 0
 571 357 480 252 390 148 c 0
 384 141 382 134 382 124 c 0
 382 103 399 85 420 85 c 2
EndSplineSet
EndChar

StartChar: three
Encoding: 51 51 20
Width: 1000
Flags: HW
HStem: -2 89<432.75 567.25> 708 89<432.75 567.25>
VStem: 293 89<137.75 280.359 514.641 657.25> 525 89<361.543 434.496> 618 89<137.75 271.888 523.515 657.25>
LayerCount: 2
Fore
SplineSet
350 312 m 0
 377 312 395 290 395 268 c 0
 395 262 393 257 391 251 c 0
 385 237 382 221 382 205 c 0
 382 140 435 87 500 87 c 0
 565 87 618 140 618 205 c 0
 618 304 525 293 525 397 c 0
 525 500 618 491 618 590 c 0
 618 655 565 708 500 708 c 0
 435 708 382 655 382 590 c 0
 382 574 385 558 391 544 c 0
 393 538 395 533 395 527 c 0
 395 505 377 483 350 483 c 0
 304 483 293 546 293 590 c 0
 293 704 386 797 500 797 c 0
 614 797 707 704 707 590 c 0
 707 485 634 434 625 425 c 0
 618 418 614 408 614 397 c 0
 614 373 629 368 646 351 c 0
 683 314 707 262 707 205 c 0
 707 91 614 -2 500 -2 c 0
 386 -2 293 91 293 205 c 0
 293 249 304 312 350 312 c 0
EndSplineSet
EndChar

StartChar: four
Encoding: 52 52 21
Width: 1000
Flags: HW
HStem: -1 21G<595 620> 324 89<372.261 563.5 651.5 730.06> 776 20G<544.5 583.5>
VStem: 263.5 89<431.532 528.327> 563.5 88<4.89471 324 413 705.848>
LayerCount: 2
Fore
SplineSet
493.5 770 m 2
 507.5 783 531.5 796 557.5 796 c 0
 609.5 796 651.5 753 651.5 701 c 2
 651.5 413 l 1
 692.5 413 l 2
 716.5 413 736.5 394 736.5 369 c 0
 736.5 344 716.5 324 692.5 324 c 2
 651.5 324 l 1
 651.5 43 l 2
 651.5 19 632.5 -1 607.5 -1 c 0
 582.5 -1 563.5 19 563.5 43 c 2
 563.5 324 l 1
 418.5 324 l 2
 332.5 324 263.5 393 263.5 479 c 0
 263.5 523 282.5 562 309.5 589 c 2
 493.5 770 l 2
553.5 705 m 2
 371.5 526 l 2
 359.5 514 352.5 497 352.5 479 c 0
 352.5 443 382.5 413 418.5 413 c 2
 563.5 413 l 1
 563.5 701 l 2
 563.5 704 560.5 707 557.5 707 c 0
 555.5 707 554.5 706 553.5 705 c 2
EndSplineSet
EndChar

StartChar: five
Encoding: 53 53 22
Width: 1000
Flags: HW
HStem: 0 89<436.58 571.25> 326 88<385.309 569.217> 709 88<384.307 690.105>
VStem: 289 89<419.98 702.627> 297 88<140.917 283.106> 622 89<139.75 273.241>
LayerCount: 2
Fore
SplineSet
354 315 m 0xec
 381 315 398 293 398 271 c 0
 398 265 397 260 395 254 c 0
 389 240 385 223 385 207 c 0xec
 385 142 439 89 504 89 c 0
 569 89 622 142 622 207 c 0
 622 272 568 326 503 326 c 2
 416 326 l 2
 349 326 289 378 289 444 c 2
 289 671 l 2
 289 741 346 797 416 797 c 2
 652 797 l 2
 676 797 696 778 696 753 c 0
 696 728 676 709 652 709 c 2
 416 709 l 2
 395 709 378 690 378 669 c 2
 378 454 l 2xf4
 378 433 396 414 417 414 c 2
 504 414 l 2
 618 414 711 321 711 207 c 0
 711 93 618 0 504 0 c 0
 390 0 297 93 297 207 c 0
 297 250 308 315 354 315 c 0xec
EndSplineSet
EndChar

StartChar: six
Encoding: 54 54 23
Width: 1000
Flags: HW
HStem: -2 89<432.75 567.637> 323 89<432.217 565.744> 708 89<433.33 567.548>
VStem: 293 89<138.734 271.779 375 658.12> 618 89<138.702 272.734 552.44 655.395>
LayerCount: 2
Fore
SplineSet
500 412 m 0
 624 412 707 307 707 208 c 0
 707 92 616 -2 500 -2 c 0
 386 -2 293 91 293 205 c 2
 293 599 l 2
 293 709 389 797 500 797 c 0
 593 797 705 729 707 590 c 0
 707 566 688 546 663 546 c 0
 638 546 618 566 618 590 c 0
 618 655 565 708 500 708 c 0
 435 708 382 655 382 590 c 0
 382 518 382 447 382 375 c 1
 417 398 455 412 500 412 c 0
618 205 m 0
 618 269 566 323 500 323 c 0
 437 323 382 272 382 205 c 0
 382 140 435 87 500 87 c 0
 565 87 618 140 618 205 c 0
EndSplineSet
EndChar

StartChar: seven
Encoding: 55 55 24
Width: 1000
Flags: HW
HStem: -2 21G<353 378> 386 89<433.94 477.5 631.5 671.06> 708 89<256.94 659.348>
VStem: 321.5 88<3.89471 129.531> 427.5 250<392.481 468.793>
LayerCount: 2
Fore
SplineSet
294.5 797 m 2
 654.5 797 l 2
 706.5 797 749.5 754 749.5 702 c 0
 749.5 684 743.5 667 734.5 653 c 2
 631.5 475 l 1
 633.5 475 l 2
 657.5 475 677.5 456 677.5 431 c 0
 677.5 406 657.5 386 633.5 386 c 2
 579.5 386 l 1
 415.5 103 l 2
 412.5 98 409.5 92 409.5 84 c 2
 409.5 42 l 2
 409.5 18 390.5 -2 365.5 -2 c 0
 340.5 -2 321.5 18 321.5 42 c 2
 321.5 84 l 2
 321.5 106 326.5 126 336.5 144 c 2
 477.5 386 l 1
 471.5 386 l 2
 447.5 386 427.5 406 427.5 431 c 0
 427.5 456 447.5 475 471.5 475 c 2
 528.5 475 l 1
 659.5 699 l 2
 659.5 700 660.5 701 660.5 702 c 0
 660.5 705 658.5 708 655.5 708 c 2
 294.5 708 l 2
 270.5 708 250.5 728 250.5 753 c 0
 250.5 778 270.5 797 294.5 797 c 2
EndSplineSet
EndChar

StartChar: eight
Encoding: 56 56 25
Width: 1000
Flags: HW
HStem: -7 89<422.529 578.417> 353 89<420.614 580.386> 713 89<422.529 578.417>
VStem: 263.5 89<149.359 287.849 507.631 645.641> 648.5 88<149.359 287.369 507.151 645.641>
CounterMasks: 1 e0
LayerCount: 2
Fore
SplineSet
500.5 802 m 0
 631.5 802 736.5 701 736.5 577 c 0
 736.5 556 733.5 470 652.5 405 c 0
 650.5 403 649.5 402 649.5 400 c 0
 649.5 380 736.5 339 736.5 218 c 0
 736.5 94 631.5 -7 500.5 -7 c 0
 369.5 -7 263.5 94 263.5 218 c 0
 263.5 239 267.5 325 348.5 390 c 0
 350.5 392 351.5 393 351.5 395 c 0
 351.5 415 263.5 456 263.5 577 c 0
 263.5 701 369.5 802 500.5 802 c 0
500.5 713 m 0
 418.5 713 352.5 652 352.5 577 c 0
 352.5 502 418.5 442 500.5 442 c 0
 582.5 442 648.5 502 648.5 577 c 0
 648.5 652 582.5 713 500.5 713 c 0
500.5 353 m 0
 418.5 353 352.5 293 352.5 218 c 0
 352.5 143 418.5 82 500.5 82 c 0
 582.5 82 648.5 143 648.5 218 c 0
 648.5 293 582.5 353 500.5 353 c 0
EndSplineSet
EndChar

StartChar: nine
Encoding: 57 57 26
Width: 1000
Flags: HW
HStem: -3 21G<324.5 344.5> 381 89<434.234 493.25> 706 89<433.08 567.75>
VStem: 293.5 88<521.917 654.083> 618.5 89<520.386 655.25>
LayerCount: 2
Fore
SplineSet
337.5 -3 m 0
 311.5 -3 292.5 19 292.5 41 c 0
 292.5 49 294.5 57 299.5 65 c 2
 499.5 371 l 2
 501.5 374 505.5 381 500.5 381 c 0
 386.5 381 293.5 474 293.5 588 c 0
 293.5 702 386.5 795 500.5 795 c 0
 614.5 795 707.5 702 707.5 588 c 0
 707.5 547 694.5 507 673.5 475 c 2
 373.5 17 l 2
 365.5 4 351.5 -3 337.5 -3 c 0
500.5 706 m 0
 435.5 706 381.5 653 381.5 588 c 0
 381.5 523 435.5 470 500.5 470 c 0
 565.5 470 618.5 523 618.5 588 c 0
 618.5 653 565.5 706 500.5 706 c 0
EndSplineSet
EndChar

StartChar: colon
Encoding: 58 58 27
Width: 1000
Flags: HW
HStem: -1 63<486.272 513.728> 89 63<486.272 513.728> 352 62<486.272 513.728> 441 63<486.272 513.728>
VStem: 424 62<62.7118 88.7445 414.272 440.288> 514 62<62.7118 88.7445 414.272 440.288>
LayerCount: 2
Fore
SplineSet
500 504 m 0
 542 504 576 470 576 428 c 0
 576 386 542 352 500 352 c 0
 458 352 424 386 424 428 c 0
 424 470 458 504 500 504 c 0
500 441 m 0
 492 441 486 436 486 428 c 0
 486 420 492 414 500 414 c 0
 508 414 514 420 514 428 c 0
 514 436 508 441 500 441 c 0
500 152 m 0
 542 152 576 117 576 75 c 0
 576 33 542 -1 500 -1 c 0
 458 -1 424 33 424 75 c 0
 424 117 458 152 500 152 c 0
500 89 m 0
 492 89 486 83 486 75 c 0
 486 67 492 62 500 62 c 0
 508 62 514 67 514 75 c 0
 514 83 508 89 500 89 c 0
EndSplineSet
EndChar

StartChar: semicolon
Encoding: 59 59 28
Width: 1000
Flags: HW
HStem: -80 141<432 527.053> -80 93<408.863 467.696> 88 63<509.272 535.288> 350 63<509.272 535.288> 440 62<509.272 535.288>
VStem: 447 62<61.7102 87.2882 413.712 439.728> 536 63<61.5172 87.7449 413.712 439.728>
LayerCount: 2
Fore
SplineSet
523 502 m 0x3e
 565 502 599 468 599 426 c 0
 599 384 565 350 523 350 c 0
 481 350 447 384 447 426 c 0
 447 468 481 502 523 502 c 0x3e
523 440 m 0
 515 440 509 434 509 426 c 0
 509 418 515 413 523 413 c 0
 531 413 536 418 536 426 c 0
 536 434 531 440 523 440 c 0
523 151 m 0
 565 151 599 116 599 74 c 0
 599 -12 530 -80 444 -80 c 0xbe
 420 -79 401 -60 401 -36 c 0
 401 13 449 6 467 13 c 0x7e
 469 14 470 15 470 16 c 0
 470 23 447 39 447 75 c 0
 447 117 481 151 523 151 c 0
523 88 m 0
 515 88 509 83 509 75 c 0
 509 67 515 61 523 61 c 0
 531 61 536 67 536 75 c 0
 536 83 531 88 523 88 c 0
EndSplineSet
EndChar

StartChar: less
Encoding: 60 60 29
Width: 1000
Flags: HW
VStem: 294 89<359.932 434.727>
LayerCount: 2
Fore
SplineSet
706 41 m 0
 706 17 685 -4 661 -4 c 0
 650 -4 639 0 630 9 c 2
 332 307 l 2
 309 330 294 362 294 397 c 0
 294 432 309 465 332 488 c 2
 630 786 l 2
 639 795 650 799 661 799 c 0
 685 799 706 778 706 754 c 0
 706 743 701 732 693 724 c 2
 394 425 l 2
 387 418 383 408 383 397 c 0
 383 386 387 377 394 370 c 2
 693 71 l 2
 701 63 706 52 706 41 c 0
EndSplineSet
EndChar

StartChar: equal
Encoding: 61 61 30
Width: 1000
Flags: HW
HStem: 142 88<299.44 700.56> 323 88<299.44 700.56>
LayerCount: 2
Fore
SplineSet
337 411 m 2
 663 411 l 2
 687 411 707 393 707 368 c 0
 707 343 687 323 663 323 c 2
 337 323 l 2
 313 323 293 343 293 368 c 0
 293 393 313 411 337 411 c 2
337 230 m 2
 663 230 l 2
 687 230 707 212 707 187 c 0
 707 162 687 142 663 142 c 2
 337 142 l 2
 313 142 293 162 293 187 c 0
 293 212 313 230 337 230 c 2
EndSplineSet
EndChar

StartChar: greater
Encoding: 62 62 31
Width: 1000
Flags: HW
VStem: 617 89<359.932 434.727>
LayerCount: 2
Fore
SplineSet
338 -4 m 0
 314 -4 294 17 294 41 c 0
 294 52 299 63 307 71 c 2
 606 370 l 2
 613 377 617 386 617 397 c 0
 617 408 613 418 606 425 c 2
 307 724 l 2
 298 733 294 743 294 754 c 0
 294 777 312 799 338 799 c 0
 349 799 360 795 369 786 c 2
 668 488 l 2
 691 465 706 432 706 397 c 0
 706 362 691 330 668 307 c 2
 369 9 l 2
 360 0 349 -4 338 -4 c 0
EndSplineSet
EndChar

StartChar: question
Encoding: 63 63 32
Width: 1000
Flags: HW
HStem: -34 63<485.272 512.728> 56 62<485.272 512.728> 707 89<432.75 567.25>
VStem: 293 89<513.142 656.25> 423 62<29.7118 55.7279> 455 89<183.44 387.272> 513 62<29.7118 55.7279> 618 89<520.557 656.25>
LayerCount: 2
Fore
SplineSet
350 482 m 0xf5
 304 482 293 545 293 589 c 0
 293 703 386 796 500 796 c 0
 614 796 707 703 707 589 c 0
 707 503 654 431 585 400 c 0
 563 391 544 366 544 338 c 2
 544 220 l 2
 544 196 524 177 499 177 c 0
 474 177 455 197 455 221 c 2
 455 339 l 2
 455 403 493 456 546 480 c 0
 588 498 618 539 618 589 c 0
 618 654 565 707 500 707 c 0
 435 707 382 654 382 589 c 0
 382 573 385 557 391 543 c 0
 393 537 395 531 395 525 c 0
 395 503 377 482 350 482 c 0xf5
499 118 m 0
 541 118 575 84 575 42 c 0
 575 0 541 -34 499 -34 c 0
 457 -34 423 0 423 42 c 0xfb
 423 84 457 118 499 118 c 0
499 56 m 0
 491 56 485 50 485 42 c 0
 485 34 491 29 499 29 c 0
 507 29 513 34 513 42 c 0
 513 50 507 56 499 56 c 0
EndSplineSet
EndChar

StartChar: at
Encoding: 64 64 33
Width: 1000
Flags: HW
HStem: -2 88<425.208 574.923> 241 89<464.022 534.054> 490 89<464.022 534.967> 708 88<425.208 574.792>
VStem: 204 89<261.228 532.772> 359 88<346.491 473.509> 551 88<344.811 475.468> 707 89<298.283 532.772>
LayerCount: 2
Fore
SplineSet
796 397 m 0
 796 178 664 -2 500 -2 c 0
 337 -2 204 177 204 397 c 0
 204 617 337 796 500 796 c 0
 663 796 796 617 796 397 c 0
615 558 m 0
 639 558 660 538 660 514 c 0
 660 503 656 492 647 483 c 0
 640 476 636 466 636 456 c 0
 636 447 639 419 639 410 c 2
 639 307 l 2
 639 291 652 278 668 278 c 0
 684 278 697 291 697 307 c 1
 698 307 l 1
 704 335 707 366 707 397 c 0
 707 568 614 708 500 708 c 0
 386 708 293 568 293 397 c 0
 293 226 386 86 500 86 c 0
 561 86 616 126 654 190 c 1
 612 195 578 222 561 259 c 1
 542 248 521 241 499 241 c 0
 422 241 359 317 359 410 c 0
 359 503 422 579 499 579 c 0
 531 579 560 566 583 545 c 1
 591 554 603 558 615 558 c 0
551 410 m 0
 551 455 528 490 499 490 c 0
 470 490 447 454 447 410 c 0
 447 366 470 330 499 330 c 0
 528 330 551 366 551 410 c 0
EndSplineSet
EndChar

StartChar: A
Encoding: 65 65 34
Width: 1000
Flags: HW
HStem: 1 21G<235.5 260.5 738.5 763.5> 326 88<293 707> 708 89<426.204 573.796>
VStem: 204 89<7.43994 326 414 535.045> 707 89<7.43994 326 414 535.045>
LayerCount: 2
Fore
SplineSet
204 398 m 2
 204 618 337 797 500 797 c 0
 663 797 796 618 796 398 c 2
 796 45 l 2
 796 21 776 1 751 1 c 0
 726 1 707 21 707 45 c 2
 707 326 l 1
 293 326 l 1
 293 45 l 2
 293 21 273 1 248 1 c 0
 223 1 204 21 204 45 c 2
 204 398 l 2
500 708 m 0
 389 708 299 578 293 414 c 1
 707 414 l 1
 701 578 611 708 500 708 c 0
EndSplineSet
EndChar

StartChar: B
Encoding: 66 66 35
Width: 1000
Flags: HW
HStem: -2 89<299.807 653.731> 323 89<293.5 505.5> 708 89<297.693 583.659>
VStem: 204.5 89<92.3731 323 412 701.43> 634.5 89<520.855 657.25> 707.5 88<138.735 272.979>
LayerCount: 2
Fore
SplineSet
204.5 669 m 2xf4
 204.5 751 270.5 797 327.5 797 c 2
 517.5 797 l 2
 631.5 797 723.5 704 723.5 590 c 0xf8
 723.5 501 668.5 449 660.5 441 c 2
 627.5 409 l 1
 723.5 391 795.5 306 795.5 205 c 0
 795.5 92 705.5 -2 593.5 -2 c 2
 331.5 -2 l 2
 261.5 -2 204.5 54 204.5 124 c 2
 204.5 669 l 2xf4
331.5 708 m 2
 313.5 708 293.5 694 293.5 668 c 2
 293.5 412 l 1
 505.5 412 l 1
 600.5 506 l 2
 621.5 527 634.5 557 634.5 590 c 0
 634.5 655 581.5 708 516.5 708 c 2
 331.5 708 l 2
587.5 87 m 1
 658.5 88 707.5 143 707.5 205 c 0xf4
 707.5 270 654.5 323 589.5 323 c 0
 490.5 323 392.5 323 293.5 323 c 1
 293.5 125 l 2
 293.5 107 306.5 87 332.5 87 c 2
 587.5 87 l 1
EndSplineSet
EndChar

StartChar: C
Encoding: 67 67 36
Width: 1000
Flags: HW
HStem: -2 89<464.208 614.23> 708 89<464.208 613.747>
VStem: 243 89<261.324 532.834>
LayerCount: 2
Fore
SplineSet
757 653 m 0
 757 631 739 609 714 609 c 0
 700 609 686 616 677 628 c 2
 671 637 l 1
 619 701 564 708 539 708 c 0
 425 708 332 568 332 397 c 0
 332 226 425 87 539 87 c 0
 595 87 640 118 677 167 c 0
 687 181 701 186 713 186 c 0
 736 186 757 166 757 142 c 0
 757 133 754 124 748 115 c 0
 696 41 621 -2 539 -2 c 0
 376 -2 243 177 243 397 c 0
 243 617 376 797 539 797 c 0
 644 797 721 722 750 677 c 0
 755 670 757 661 757 653 c 0
EndSplineSet
EndChar

StartChar: D
Encoding: 68 68 37
Width: 1000
Flags: HW
HStem: -2 89<350.641 523.75> 708 89<348.696 520.754>
VStem: 255 89<93.8352 704.072> 657 88<261.324 532.433>
LayerCount: 2
Fore
SplineSet
382 797 m 2
 455 797 l 2
 616 797 745 615 745 397 c 0
 745 177 613 -2 450 -2 c 0
 427 -2 405 -2 382 -2 c 0
 313 -2 255 53 255 122 c 2
 255 681 l 2
 255 744 316 797 382 797 c 2
344 127 m 2
 344 111 353 87 387 87 c 2
 450 87 l 2
 564 87 657 226 657 397 c 0
 657 568 564 708 450 708 c 0
 427 708 405 708 382 708 c 0
 361 708 344 691 344 670 c 2
 344 127 l 2
EndSplineSet
EndChar

StartChar: E
Encoding: 69 69 38
Width: 1000
Flags: HW
HStem: -0 89<375.135 711.06> 327 88<371.5 603.605> 710 88<376.196 711.605>
VStem: 282.5 89<94.889 327 415 706.029>
LayerCount: 2
Fore
SplineSet
409.5 798 m 2
 673.5 798 l 2
 697.5 798 717.5 779 717.5 754 c 0
 717.5 729 697.5 710 673.5 710 c 2
 409.5 710 l 2
 387.5 710 370.5 692 371.5 670 c 1
 371.5 415 l 1
 565.5 415 l 2
 589.5 415 609.5 396 609.5 371 c 0
 609.5 346 589.5 327 565.5 327 c 2
 371.5 327 l 1
 371.5 128 l 2
 371.5 101 391.5 89 409.5 89 c 0
 410.5 89 673.5 88 673.5 88 c 2
 697.5 88 717.5 69 717.5 44 c 0
 717.5 19 697.5 0 673.5 0 c 2
 409.5 0 l 2
 340.5 0 282.5 54 282.5 123 c 2
 282.5 683 l 2
 282.5 746 343.5 798 409.5 798 c 2
EndSplineSet
EndChar

StartChar: F
Encoding: 70 70 39
Width: 1000
Flags: HW
HStem: -3 21G<314 339> 324 88<371.5 603.06> 707 88<376.196 711.605>
VStem: 282.5 89<3.43994 324 412 703.029>
LayerCount: 2
Fore
SplineSet
409.5 795 m 2
 673.5 795 l 2
 697.5 795 717.5 776 717.5 751 c 0
 717.5 726 697.5 707 673.5 707 c 2
 409.5 707 l 2
 387.5 707 370.5 689 371.5 667 c 1
 371.5 412 l 1
 565.5 412 l 2
 589.5 412 609.5 394 609.5 369 c 0
 609.5 344 589.5 324 565.5 324 c 2
 371.5 324 l 1
 371.5 41 l 2
 371.5 17 351.5 -3 326.5 -3 c 0
 301.5 -3 282.5 17 282.5 41 c 2
 282.5 680 l 2
 282.5 743 343.5 795 409.5 795 c 2
EndSplineSet
EndChar

StartChar: G
Encoding: 71 71 40
Width: 1000
Flags: HW
HStem: -2 89<433.208 582.554> 325 89<381.44 693.627> 708 89<433.208 584.096>
VStem: 212 89<261.324 532.834> 700 88<222.385 319.974>
LayerCount: 2
Fore
SplineSet
726 653 m 0
 726 631 706 608 682 608 c 0
 656 608 641 638 624 655 c 0
 574 706 525 708 508 708 c 0
 394 708 301 568 301 397 c 0
 301 226 394 87 508 87 c 0
 640 87 700 262 700 287 c 0
 700 308 683 325 662 325 c 2
 419 325 l 2
 395 325 375 345 375 370 c 0
 375 395 395 414 419 414 c 2
 662 414 l 2
 732 414 788 357 788 287 c 0
 788 217 693 -2 508 -2 c 0
 345 -2 212 177 212 397 c 0
 212 617 345 797 508 797 c 0
 591 797 667 749 719 676 c 0
 724 669 726 661 726 653 c 0
EndSplineSet
EndChar

StartChar: H
Encoding: 72 72 41
Width: 1000
Flags: HW
HStem: -1 21G<235.5 260.5 738.5 763.5> 324 89<293 707> 776 20G<235.5 260.5 738.5 763.5>
VStem: 204 89<5.43994 324 413 789.56> 707 89<5.43994 324 413 789.56>
LayerCount: 2
Fore
SplineSet
248 796 m 0
 273 796 293 776 293 752 c 2
 293 432 l 2
 293 422 304 413 314 413 c 2
 686 413 l 2
 696 413 707 424 707 434 c 2
 707 752 l 2
 707 776 726 796 751 796 c 0
 776 796 796 776 796 752 c 2
 796 43 l 2
 796 19 776 -1 751 -1 c 0
 726 -1 707 19 707 43 c 2
 707 303 l 2
 707 313 696 324 686 324 c 2
 314 324 l 2
 304 324 293 315 293 305 c 2
 293 43 l 2
 293 19 273 -1 248 -1 c 0
 223 -1 204 19 204 43 c 2
 204 752 l 2
 204 776 223 796 248 796 c 0
EndSplineSet
EndChar

StartChar: I
Encoding: 73 73 42
Width: 1000
Flags: HW
HStem: -2 88<374.395 455.244 544.781 625.605> 708 88<374.395 455.429 544.578 625.605>
VStem: 455.5 89<86 708>
LayerCount: 2
Fore
SplineSet
412.5 796 m 2
 587.5 796 l 2
 611.5 796 631.5 777 631.5 752 c 0
 631.5 727 611.5 708 587.5 708 c 2
 566.5 708 l 2
 556.5 708 544.5 695 544.5 685 c 2
 544.5 111 l 2
 544.5 100 555.5 86 566.5 86 c 2
 587.5 86 l 2
 611.5 86 631.5 67 631.5 42 c 0
 631.5 17 611.5 -2 587.5 -2 c 2
 412.5 -2 l 2
 388.5 -2 368.5 17 368.5 42 c 0
 368.5 67 388.5 86 412.5 86 c 2
 434.5 86 l 2
 445.5 86 455.5 100 455.5 111 c 2
 455.5 685 l 2
 455.5 695 444.5 708 434.5 708 c 2
 412.5 708 l 2
 388.5 708 368.5 727 368.5 752 c 0
 368.5 777 388.5 796 412.5 796 c 2
EndSplineSet
EndChar

StartChar: J
Encoding: 74 74 43
Width: 1000
Flags: HW
HStem: -1 89<385.75 519.863> 706 89<431.44 571 660 747.56>
VStem: 246 89<139.734 243.56> 571 89<140.975 706>
LayerCount: 2
Fore
SplineSet
335 206 m 0
 335 141 388 88 453 88 c 0
 518 88 571 141 571 206 c 2
 571 706 l 1
 469 706 l 2
 445 706 425 726 425 751 c 0
 425 776 445 795 469 795 c 2
 710 795 l 2
 734 795 754 776 754 751 c 0
 754 726 734 706 710 706 c 2
 660 706 l 1
 660 200 l 2
 660 91 565 -1 453 -1 c 0
 339 -1 246 92 246 206 c 0
 246 230 265 250 290 250 c 0
 315 250 335 230 335 206 c 0
EndSplineSet
EndChar

StartChar: K
Encoding: 75 75 44
Width: 1000
Flags: HW
HStem: -1 21G<261.5 286.5 720.5 738> 775 20G<261.5 286.5 720.5 738>
VStem: 230 89<5.43994 324 419.724 788.56>
LayerCount: 2
Fore
SplineSet
770 44 m 0
 770 20 750 -1 726 -1 c 0
 715 -1 704 3 695 12 c 2
 399 308 l 2
 390 317 376 324 363 324 c 2
 341 324 l 2
 331 324 319 312 319 302 c 2
 319 43 l 2
 319 19 299 -1 274 -1 c 0
 249 -1 230 19 230 43 c 2
 230 751 l 2
 230 775 249 795 274 795 c 0
 299 795 319 775 319 751 c 2
 319 431 l 2
 319 415 326 414 332 420 c 2
 695 782 l 2
 704 791 715 795 726 795 c 0
 750 795 770 775 770 751 c 0
 770 740 765 728 757 720 c 2
 453 415 l 2
 449 411 447 404 447 397 c 0
 447 390 449 383 453 379 c 2
 757 75 l 2
 765 67 770 55 770 44 c 0
EndSplineSet
EndChar

StartChar: L
Encoding: 76 76 45
Width: 1000
Flags: HW
HStem: -4 88<379.807 709.605>
VStem: 284.5 89<87.9281 787.56>
LayerCount: 2
Fore
SplineSet
411.5 -4 m 2
 341.5 -4 284.5 52 284.5 123 c 2
 284.5 750 l 2
 284.5 774 303.5 794 328.5 794 c 0
 353.5 794 373.5 774 373.5 750 c 2
 373.5 124 l 2
 373.5 97 394.5 84 411.5 84 c 2
 671.5 84 l 2
 695.5 84 715.5 65 715.5 40 c 0
 715.5 15 695.5 -4 671.5 -4 c 2
 411.5 -4 l 2
EndSplineSet
EndChar

StartChar: M
Encoding: 77 77 46
Width: 1000
Flags: HW
HStem: -1 21G<236 261 739 764> 349 89<464.72 532.504> 775 20G<236 275.5 723.5 763>
VStem: 204.5 89<5.43994 638.185> 707.5 88<4.89471 639.184>
LayerCount: 2
Fore
SplineSet
750.5 795 m 0
 775.5 795 795.5 775 795.5 751 c 2
 795.5 43 l 2
 795.5 19 776.5 -1 751.5 -1 c 0
 726.5 -1 707.5 19 707.5 43 c 2
 707.5 638 l 2
 707.5 642 697.5 643 696.5 639 c 2
 624.5 449 l 2
 622.5 445 621.5 441 620.5 437 c 0
 603.5 386 555.5 349 498.5 349 c 0
 441.5 349 393.5 386 377.5 438 c 1
 300.5 638 l 2
 298.5 642 293.5 642 293.5 638 c 2
 293.5 43 l 2
 293.5 19 273.5 -1 248.5 -1 c 0
 223.5 -1 204.5 19 204.5 43 c 2
 204.5 751 l 2
 204.5 775 223.5 795 248.5 795 c 0
 302.5 795 346.5 762 365.5 717 c 0
 398.5 632 429.5 546 463.5 461 c 1
 472.5 442 489.5 438 498.5 438 c 0
 507.5 438 524.5 441 533.5 460 c 1
 632.5 717 l 1
 651.5 763 696.5 795 750.5 795 c 0
EndSplineSet
EndChar

StartChar: N
Encoding: 78 78 47
Width: 1000
Flags: HW
HStem: -1 21G<324.5 349.5 634 675.5> 775 20G<324.5 367 650.5 675.5>
VStem: 293 89<5.43994 614.322> 618 89<176.588 788.56>
LayerCount: 2
Fore
SplineSet
337 795 m 0
 397 795 446 754 460 698 c 1
 609 177 l 2
 611 168 618 172 618 179 c 2
 618 751 l 2
 618 775 638 795 663 795 c 0
 688 795 707 775 707 751 c 2
 707 43 l 2
 707 19 688 -1 663 -1 c 0
 605 -1 558 36 541 90 c 0
 491 265 442 440 392 614 c 0
 390 621 382 619 382 612 c 2
 382 43 l 2
 382 19 362 -1 337 -1 c 0
 312 -1 293 19 293 43 c 2
 293 751 l 2
 293 775 312 795 337 795 c 0
EndSplineSet
EndChar

StartChar: O
Encoding: 79 79 48
Width: 1000
Flags: HW
HStem: -2 88<425.208 574.792> 708 88<425.208 574.792>
VStem: 204 89<261.228 532.772> 707 89<261.228 532.772>
LayerCount: 2
Fore
SplineSet
500 796 m 0
 663 796 796 617 796 397 c 0
 796 177 663 -2 500 -2 c 0
 337 -2 204 177 204 397 c 0
 204 617 337 796 500 796 c 0
500 708 m 0
 386 708 293 568 293 397 c 0
 293 226 386 86 500 86 c 0
 614 86 707 226 707 397 c 0
 707 568 614 708 500 708 c 0
EndSplineSet
EndChar

StartChar: P
Encoding: 80 80 49
Width: 1000
Flags: HW
HStem: -1 21G<324.5 349.5> 381 89<382 567.583> 706 89<385.905 565.52>
VStem: 293 89<5.43994 381 470 699.775> 618 89<521.137 655.725>
LayerCount: 2
Fore
SplineSet
500 795 m 1
 625 793 707 693 707 588 c 0
 707 476 619 381 508 381 c 2
 382 381 l 1
 382 43 l 2
 382 19 362 -1 337 -1 c 0
 312 -1 293 19 293 43 c 2
 293 676 l 2
 293 741 350 795 416 795 c 2
 500 795 l 1
420 706 m 2
 399 706 382 689 382 668 c 0
 382 607 382 547 382 486 c 0
 382 479 389 470 396 470 c 2
 500 470 l 2
 565 470 618 523 618 588 c 0
 618 653 565 706 500 706 c 2
 420 706 l 2
EndSplineSet
EndChar

StartChar: Q
Encoding: 81 81 50
Width: 1000
Flags: HW
HStem: -2 89<425.208 575.751 715.756 787.56> 164 88<546.988 618.714> 708 89<425.208 574.792>
VStem: 204 89<261.324 532.834> 707 89<258.867 532.834>
LayerCount: 2
Fore
SplineSet
541 208 m 0
 541 238 563 252 592 252 c 0
 617 252 646 242 670 220 c 1
 693 270 707 331 707 397 c 0
 707 568 614 708 500 708 c 0
 386 708 293 568 293 397 c 0
 293 226 386 87 500 87 c 0
 544 87 585 108 619 143 c 1
 613 155 600 164 585 164 c 0
 561 164 541 183 541 208 c 0
500 797 m 0
 663 797 796 617 796 397 c 0
 796 289 764 192 712 120 c 1
 715 101 731 87 750 87 c 0
 774 87 794 68 794 43 c 0
 794 18 774 -2 750 -2 c 0
 708 -2 670 19 647 51 c 1
 604 17 554 -2 500 -2 c 0
 337 -2 204 177 204 397 c 0
 204 617 337 797 500 797 c 0
EndSplineSet
EndChar

StartChar: R
Encoding: 82 82 51
Width: 1000
Flags: HW
HStem: -1 21G<324 349 656.5 676> 381 89<381.5 413.5 502.5 567.083> 706 89<385.405 565.02>
VStem: 292.5 89<5.43994 381 470 699.775> 413.5 89<316.984 381> 617.5 89<521.137 655.725>
LayerCount: 2
Fore
SplineSet
707.5 44 m 0
 707.5 21 688.5 -1 663.5 -1 c 0
 649.5 -1 636.5 6 627.5 18 c 2
 440.5 281 l 1
 423.5 303 413.5 330 413.5 359 c 2
 413.5 381 l 1
 381.5 381 l 1
 381.5 43 l 2
 381.5 19 361.5 -1 336.5 -1 c 0
 311.5 -1 292.5 19 292.5 43 c 2
 292.5 676 l 2
 292.5 741 349.5 795 415.5 795 c 2
 499.5 795 l 1
 624.5 793 706.5 693 706.5 588 c 0
 706.5 476 618.5 381 507.5 381 c 2
 502.5 381 l 1
 502.5 357 l 2
 502.5 353 504.5 344 508.5 338 c 2
 699.5 69 l 2
 704.5 61 707.5 53 707.5 44 c 0
419.5 706 m 2
 398.5 706 381.5 689 381.5 668 c 2
 381.5 486 l 2
 381.5 479 388.5 470 395.5 470 c 2
 499.5 470 l 2
 564.5 470 617.5 523 617.5 588 c 0
 617.5 653 564.5 706 499.5 706 c 2
 419.5 706 l 2
EndSplineSet
EndChar

StartChar: S
Encoding: 83 83 52
Width: 1000
Flags: HW
HStem: -0 88<412.283 615.932> 710 88<384.068 587.717>
VStem: 251.5 89<540.013 666.484> 271.5 88<141.181 245.105> 640.5 88<552.895 656.396> 659.5 89<131.516 257.987>
LayerCount: 2
Fore
SplineSet
478.5 0 m 2xe4
 351.5 0 271.5 102 271.5 201 c 2
 271.5 207 l 2
 271.5 231 290.5 251 315.5 251 c 0
 340.5 251 359.5 231 359.5 207 c 0
 359.5 142 413.5 89 478.5 89 c 0
 503.5 89 528.5 88 553.5 88 c 0
 611.5 88 659.5 136 659.5 194 c 0xd4
 659.5 235 637.5 269 604.5 288 c 2
 346.5 436 l 1
 290.5 470 251.5 532 251.5 604 c 0
 251.5 710 335.5 798 440.5 798 c 2
 525.5 798 l 2
 634.5 798 728.5 707 728.5 597 c 2
 728.5 591 l 2
 728.5 567 709.5 547 684.5 547 c 0
 659.5 547 640.5 567 640.5 591 c 0xe8
 640.5 656 586.5 710 521.5 710 c 0
 496.5 710 471.5 710 446.5 710 c 0
 388.5 710 340.5 662 340.5 604 c 0
 340.5 563 362.5 529 395.5 510 c 2
 653.5 362 l 1
 709.5 328 748.5 266 748.5 194 c 0
 748.5 88 664.5 0 559.5 0 c 2
 478.5 0 l 2xe4
EndSplineSet
EndChar

StartChar: T
Encoding: 84 84 53
Width: 1000
Flags: HW
HStem: -1 21G<487.5 512.5> 707 88<298.895 456 545 701.105>
VStem: 456 89<5.43994 707>
LayerCount: 2
Fore
SplineSet
337 795 m 2
 663 795 l 2
 687 795 707 776 707 751 c 0
 707 726 687 707 663 707 c 2
 559 707 l 2
 552 707 545 699 545 692 c 2
 545 43 l 2
 545 19 525 -1 500 -1 c 0
 475 -1 456 19 456 43 c 2
 456 692 l 2
 456 699 448 707 441 707 c 2
 337 707 l 2
 313 707 293 726 293 751 c 0
 293 776 313 795 337 795 c 2
EndSplineSet
EndChar

StartChar: U
Encoding: 85 85 54
Width: 1000
Flags: HW
HStem: -2 88<425.041 574.761> 776 20G<235.5 260.5 739.5 764.5>
VStem: 204 89<262.5 789.56> 707 89<262.5 789.56>
LayerCount: 2
Fore
SplineSet
500 -2 m 0
 336 -2 204 179 204 395 c 2
 204 752 l 2
 204 776 223 796 248 796 c 0
 273 796 293 776 293 752 c 2
 293 397 l 2
 293 226 386 86 500 86 c 0
 614 86 707 226 707 397 c 2
 707 752 l 2
 707 776 727 796 752 796 c 0
 777 796 796 776 796 752 c 2
 796 395 l 1
 795 175 663 -2 500 -2 c 0
EndSplineSet
EndChar

StartChar: V
Encoding: 86 86 55
Width: 1000
Flags: HW
HStem: -3 89<467.27 532.945> 777 20G<232.5 255.5 744.5 768>
VStem: 711.5 87<737.971 790.966>
LayerCount: 2
Fore
SplineSet
754.5 797 m 0
 781.5 797 798.5 775 798.5 753 c 0
 798.5 749 797.5 745 796.5 741 c 2
 623.5 92 l 2
 609.5 38 559.5 -3 500.5 -3 c 0
 441.5 -3 390.5 38 376.5 92 c 2
 203.5 741 l 2
 202.5 745 201.5 749 201.5 753 c 0
 201.5 776 219.5 797 245.5 797 c 0
 265.5 797 283.5 784 288.5 764 c 2
 462.5 117 l 2
 468.5 94 487.5 86 500.5 86 c 0
 515.5 86 529.5 94 537.5 117 c 1
 711.5 764 l 2
 716.5 784 734.5 797 754.5 797 c 0
EndSplineSet
EndChar

StartChar: W
Encoding: 87 87 56
Width: 1000
Flags: HW
HStem: -2 88<327.311 435.985 563.207 671.946> 776 20G<236.5 261.5 738.5 763.5>
VStem: 205 89<121.738 789.56> 455 89<105.206 433.56> 706 89<121.738 789.56>
LayerCount: 2
Fore
SplineSet
385 -2 m 0
 287 -2 205 77 205 174 c 2
 205 752 l 2
 205 776 224 796 249 796 c 0
 274 796 294 776 294 752 c 2
 294 180 l 2
 294 129 334 86 385 86 c 0
 424 86 455 117 455 156 c 2
 455 396 l 2
 455 420 474 440 499 440 c 0
 524 440 544 420 544 396 c 0
 544 316 544 236 544 156 c 0
 544 117 575 86 614 86 c 0
 665 86 706 129 706 180 c 2
 706 752 l 2
 706 776 726 796 751 796 c 0
 776 796 795 776 795 752 c 2
 795 174 l 2
 795 77 712 -2 614 -2 c 0
 574 -2 532 13 500 46 c 1
 468 13 425 -2 385 -2 c 0
EndSplineSet
EndChar

StartChar: X
Encoding: 88 88 57
Width: 1000
Flags: HW
HStem: -3 21G<319.5 341.5 658.5 680.5> 777 20G<320.5 342.5 658.5 680.5>
VStem: 289 84<3.17981 23 772 790.53> 446 108<341.438 452.562> 627 84<3.17981 23 772 791.226>
CounterMasks: 1 38
LayerCount: 2
Fore
SplineSet
289 753 m 4
 289 775 307 797 334 797 c 4
 351 797 366 787 373 772 c 6
 492 518 l 6
 494 513 506 513 508 518 c 6
 627 772 l 6
 634 788 650 797 667 797 c 4
 694 797 711 775 711 753 c 4
 711 747 710 740 707 734 c 6
 559 418 l 6
 556 412 554 404 554 397 c 4
 554 390 556 382 559 376 c 6
 707 60 l 6
 710 54 711 48 711 42 c 4
 711 20 694 -3 667 -3 c 4
 650 -3 634 7 627 23 c 6
 508 276 l 6
 506 281 494 281 492 276 c 6
 373 23 l 6
 366 7 350 -3 333 -3 c 4
 306 -3 289 20 289 42 c 4
 289 48 290 54 293 60 c 6
 441 376 l 6
 444 382 446 390 446 397 c 4
 446 404 444 412 441 418 c 6
 293 734 l 6
 290 740 289 747 289 753 c 4
EndSplineSet
EndChar

StartChar: Y
Encoding: 89 89 58
Width: 1000
Flags: HW
HStem: -2 21G<486.5 511.5> 776 20G<235.5 260.5 739.5 764.5>
VStem: 204 89<577.284 789.56> 455 88<3.89471 318.902> 707 89<576.5 789.56>
LayerCount: 2
Fore
SplineSet
707 752 m 2
 707 776 727 796 752 796 c 0
 777 796 796 776 796 752 c 2
 796 711 l 2
 796 541 712 360 557 319 c 0
 551 317 543 309 543 303 c 2
 543 42 l 2
 543 18 524 -2 499 -2 c 0
 474 -2 455 18 455 42 c 2
 455 303 l 2
 455 326 422 312 356 362 c 0
 266 430 204 561 204 711 c 2
 204 752 l 2
 204 776 223 796 248 796 c 0
 273 796 293 776 293 752 c 2
 293 711 l 2
 293 540 386 400 500 400 c 0
 614 400 707 540 707 711 c 2
 707 752 l 2
EndSplineSet
EndChar

StartChar: Z
Encoding: 90 90 59
Width: 1000
Flags: HW
HStem: -2 88<380 711.105> 368 89<364.44 431> 708 88<288.895 623.999>
VStem: 286 89<86.8913 129.125> 358 263<374.481 450.793>
LayerCount: 2
Fore
SplineSet
286 92 m 0xf0
 286 109 290 124 298 138 c 2
 431 368 l 1
 402 368 l 2
 378 368 358 388 358 413 c 0
 358 438 378 457 402 457 c 2
 483 457 l 1
 623 699 l 2
 623 700 624 701 624 702 c 0
 624 705 622 708 619 708 c 2
 327 708 l 2
 303 708 283 727 283 752 c 0
 283 777 303 796 327 796 c 2
 624 796 l 2
 674 796 712 752 712 702 c 0
 712 682 707 666 699 653 c 2
 585 456 l 1
 606 453 621 435 621 413 c 0xe8
 621 388 601 368 577 368 c 2
 534 368 l 1
 375 95 l 2
 374 94 375 93 375 92 c 0
 375 89 377 86 380 86 c 2
 673 86 l 2
 697 86 717 67 717 42 c 0
 717 17 697 -2 673 -2 c 2
 380 -2 l 2
 332 -2 286 37 286 92 c 0xf0
EndSplineSet
EndChar

StartChar: bracketleft
Encoding: 91 91 60
Width: 1000
Flags: HW
HStem: -128 89<500.307 588.56> 833 89<500.307 588.56>
VStem: 405 89<-32.6925 826.693>
LayerCount: 2
Fore
SplineSet
532 922 m 2
 551 922 l 2
 575 922 595 902 595 877 c 0
 595 852 575 833 551 833 c 2
 532 833 l 2
 511 833 494 816 494 795 c 2
 494 -1 l 2
 494 -22 511 -39 532 -39 c 2
 551 -39 l 2
 575 -39 595 -58 595 -83 c 0
 595 -108 575 -128 551 -128 c 2
 532 -128 l 2
 462 -128 405 -71 405 -1 c 2
 405 795 l 2
 405 865 462 922 532 922 c 2
EndSplineSet
EndChar

StartChar: backslash
Encoding: 92 92 61
Width: 1000
Flags: HW
HStem: 0 21G<697 717.5> 778 20G<282.5 303>
LayerCount: 2
Fore
SplineSet
749.5 44 m 0
 749.5 22 730.5 0 704.5 0 c 0
 689.5 0 674.5 7 666.5 21 c 2
 256.5 732 l 2
 252.5 739 250.5 747 250.5 754 c 0
 250.5 776 269.5 798 295.5 798 c 0
 310.5 798 325.5 790 333.5 776 c 2
 743.5 66 l 2
 747.5 59 749.5 52 749.5 44 c 0
EndSplineSet
EndChar

StartChar: bracketright
Encoding: 93 93 62
Width: 1000
Flags: HW
HStem: -128 89<411.44 502.718> 833 89<411.44 502.718>
VStem: 507 88<-32.6925 826.693>
LayerCount: 2
Fore
SplineSet
468 922 m 2
 538 922 595 865 595 795 c 2
 595 -1 l 2
 595 -71 538 -128 468 -128 c 2
 449 -128 l 2
 425 -128 405 -108 405 -83 c 0
 405 -58 425 -39 449 -39 c 2
 468 -39 l 2
 489 -39 507 -22 507 -1 c 2
 507 795 l 2
 507 816 489 833 468 833 c 2
 449 833 l 2
 425 833 405 852 405 877 c 0
 405 902 425 922 449 922 c 2
 468 922 l 2
EndSplineSet
EndChar

StartChar: asciicircum
Encoding: 94 94 63
Width: 1000
Flags: HW
HStem: 706 89<466.411 533.803>
LayerCount: 2
Fore
SplineSet
760.5 423 m 0
 760.5 401 741.5 379 715.5 379 c 0
 699.5 379 684.5 388 676.5 403 c 2
 534.5 685 l 2
 524.5 703 509.5 706 500.5 706 c 0
 483.5 706 471.5 696 464.5 682 c 2
 323.5 403 l 2
 315.5 388 300.5 379 284.5 379 c 0
 258.5 379 239.5 401 239.5 423 c 0
 239.5 430 241.5 437 244.5 443 c 2
 384.5 721 l 1
 406.5 769 451.5 795 500.5 795 c 0
 545.5 795 585.5 771 607.5 735 c 1
 755.5 443 l 2
 758.5 437 760.5 430 760.5 423 c 0
EndSplineSet
EndChar

StartChar: underscore
Encoding: 95 95 64
Width: 1000
Flags: HW
HStem: -213 89<209.44 790.56>
LayerCount: 2
Fore
SplineSet
797 -168 m 0
 797 -193 777 -213 753 -213 c 2
 247 -213 l 2
 223 -213 203 -193 203 -168 c 0
 203 -143 223 -124 247 -124 c 2
 753 -124 l 2
 777 -124 797 -143 797 -168 c 0
EndSplineSet
EndChar

StartChar: grave
Encoding: 96 96 65
Width: 1000
Flags: HW
HStem: 551 244<461.707 538.019>
VStem: 455.5 89<557.44 788.56>
LayerCount: 2
Fore
SplineSet
544.5 595 m 2
 544.5 571 524.5 551 499.5 551 c 0
 474.5 551 455.5 571 455.5 595 c 2
 455.5 751 l 2
 455.5 775 474.5 795 499.5 795 c 0
 524.5 795 544.5 775 544.5 751 c 2
 544.5 595 l 2
EndSplineSet
EndChar

StartChar: a
Encoding: 97 97 66
Width: 1000
Flags: HW
HStem: -1 89<432.75 567.61> 325 88<433.917 566.443>
VStem: 293 89<138.75 273.42> 618 89<137.765 274.573>
LayerCount: 2
Fore
SplineSet
662 414 m 0
 687 414 707 394 707 370 c 2
 707 43 l 2
 707 19 687 -1 662 -1 c 0
 639 -1 622 16 619 37 c 1
 585 13 544 -1 500 -1 c 0
 386 -1 293 92 293 206 c 0
 293 320 386 413 500 413 c 0
 544 413 585 400 619 376 c 1
 622 397 639 414 662 414 c 0
500 325 m 0
 435 325 382 271 382 206 c 0
 382 141 435 88 500 88 c 0
 565 88 618 141 618 206 c 0
 618 271 565 325 500 325 c 0
EndSplineSet
EndChar

StartChar: b
Encoding: 98 98 67
Width: 1000
Flags: HW
HStem: 1 89<432.39 567.25> 326 89<431.747 567.25> 777 20G<324.5 349.5>
VStem: 293 89<139.765 276.235 378 790.56> 618 89<140.75 275.25>
LayerCount: 2
Fore
SplineSet
337 797 m 0
 362 797 382 777 382 753 c 2
 382 378 l 1
 416 401 456 415 500 415 c 0
 614 415 707 322 707 208 c 0
 707 94 614 1 500 1 c 0
 456 1 415 15 381 39 c 1
 378 18 360 1 337 1 c 0
 312 1 293 21 293 45 c 2
 293 753 l 2
 293 777 312 797 337 797 c 0
500 326 m 0
 435 326 382 273 382 208 c 0
 382 143 435 90 500 90 c 0
 565 90 618 143 618 208 c 0
 618 273 565 326 500 326 c 0
EndSplineSet
EndChar

StartChar: c
Encoding: 99 99 68
Width: 1000
Flags: HW
HStem: -0 88<459.417 594.355> 325 89<458.25 592.37>
VStem: 318.5 89<139.58 274.25>
LayerCount: 2
Fore
SplineSet
681.5 328 m 0
 681.5 300 660.5 281 632.5 281 c 0
 624.5 281 616.5 284 609.5 290 c 0
 587.5 311 558.5 325 525.5 325 c 0
 460.5 325 407.5 272 407.5 207 c 0
 407.5 142 460.5 88 525.5 88 c 0
 558.5 88 588.5 101 609.5 123 c 0
 614.5 129 623.5 131 632.5 131 c 0
 659.5 131 680.5 109 680.5 83 c 0
 680.5 74 677.5 66 671.5 60 c 0
 634.5 22 582.5 0 525.5 0 c 0
 411.5 0 318.5 93 318.5 207 c 0
 318.5 321 411.5 414 525.5 414 c 0
 582.5 414 634.5 391 671.5 353 c 0
 678.5 346 681.5 336 681.5 328 c 0
EndSplineSet
EndChar

StartChar: d
Encoding: 100 100 69
Width: 1000
Flags: HW
HStem: 1 89<432.75 567.61> 326 89<432.75 568.253> 777 20G<649.5 674.5>
VStem: 293 89<140.75 275.25> 618 89<139.765 276.235 378 790.56>
LayerCount: 2
Fore
SplineSet
662 797 m 0
 687 797 707 777 707 753 c 2
 707 45 l 2
 707 21 687 1 662 1 c 0
 639 1 622 17 619 38 c 1
 585 14 544 1 500 1 c 0
 386 1 293 94 293 208 c 0
 293 322 386 415 500 415 c 0
 544 415 584 401 618 378 c 1
 618 753 l 2
 618 777 637 797 662 797 c 0
500 326 m 0
 435 326 382 273 382 208 c 0
 382 143 435 90 500 90 c 0
 565 90 618 143 618 208 c 0
 618 273 565 326 500 326 c 0
EndSplineSet
EndChar

StartChar: e
Encoding: 101 101 70
Width: 1000
Flags: HW
HStem: -0 89<433.25 568.471> 180 89<404.94 584.958> 325 89<433.25 567.78>
VStem: 293.5 89<139.75 274.25>
LayerCount: 2
Fore
SplineSet
629.5 154 m 0
 657.5 154 676.5 124 676.5 107 c 0
 676.5 100 675.5 95 672.5 91 c 0
 635.5 37 572.5 0 500.5 0 c 0
 386.5 0 293.5 93 293.5 207 c 0
 293.5 321 386.5 414 500.5 414 c 0
 643.5 414 706.5 283 706.5 225 c 0
 706.5 200 686.5 180 662.5 180 c 2
 442.5 180 l 2
 418.5 180 398.5 200 398.5 225 c 0
 398.5 250 418.5 269 442.5 269 c 2
 576.5 269 l 2
 589.5 269 594.5 281 584.5 290 c 0
 563.5 311 533.5 325 500.5 325 c 0
 435.5 325 382.5 272 382.5 207 c 0
 382.5 142 435.5 89 500.5 89 c 0
 541.5 89 577.5 109 598.5 140 c 0
 601.5 144 613.5 154 629.5 154 c 0
EndSplineSet
EndChar

StartChar: f
Encoding: 102 102 71
Width: 1000
Flags: HW
HStem: -2 21G<377 402> 323 88<245.94 346.5 434.5 657.06> 708 89<486.661 620.68>
VStem: 346.5 88<4.43994 323 411 653.434> 671.5 89<552.44 656.634>
LayerCount: 2
Fore
SplineSet
553.5 797 m 0
 655.5 797 759.5 718 760.5 590 c 0
 760.5 566 741.5 546 716.5 546 c 0
 691.5 546 671.5 566 671.5 590 c 0
 671.5 655 618.5 708 553.5 708 c 0
 488.5 708 434.5 655 434.5 590 c 2
 434.5 411 l 1
 619.5 411 l 2
 643.5 411 663.5 393 663.5 368 c 0
 663.5 343 643.5 323 619.5 323 c 2
 434.5 323 l 1
 434.5 42 l 2
 434.5 18 414.5 -2 389.5 -2 c 0
 364.5 -2 346.5 18 346.5 42 c 2
 346.5 323 l 1
 283.5 323 l 2
 259.5 323 239.5 343 239.5 368 c 0
 239.5 393 259.5 411 283.5 411 c 2
 346.5 411 l 1
 346.5 599 l 2
 346.5 709 442.5 797 553.5 797 c 0
EndSplineSet
EndChar

StartChar: g
Encoding: 103 103 72
Width: 1000
Flags: HW
HStem: -385 88<433.207 565.503> -0 88<433.917 566.169> 325 89<432.75 567.61>
VStem: 293 89<-243.041 -140.44 139.58 274.25> 618 89<-246.12 37 138.427 275.235>
LayerCount: 2
Fore
SplineSet
500 -385 m 0
 405 -385 295 -316 293 -178 c 0
 293 -154 312 -134 337 -134 c 0
 362 -134 382 -154 382 -178 c 0
 382 -243 435 -297 500 -297 c 0
 565 -297 618 -243 618 -178 c 0
 618 -106 618 -35 618 37 c 1
 584 14 544 0 500 0 c 0
 386 0 293 93 293 207 c 0
 293 321 386 414 500 414 c 0
 544 414 585 400 619 376 c 1
 622 397 640 414 663 414 c 0
 688 414 707 394 707 370 c 2
 707 -187 l 2
 707 -297 611 -385 500 -385 c 0
500 325 m 0
 435 325 382 272 382 207 c 0
 382 142 435 88 500 88 c 0
 565 88 618 142 618 207 c 0
 618 272 565 325 500 325 c 0
EndSplineSet
EndChar

StartChar: h
Encoding: 104 104 73
Width: 1000
Flags: HW
HStem: -1 21G<324.5 349.5 649.5 674.5> 325 89<431.747 567.25> 776 20G<324.5 349.5>
VStem: 293 89<5.43994 275.235 376 789.56> 618 89<5.43994 274.159>
LayerCount: 2
Fore
SplineSet
337 796 m 0
 362 796 382 776 382 752 c 2
 382 376 l 1
 416 399 456 414 500 414 c 0
 614 414 707 322 707 208 c 2
 707 43 l 2
 707 19 687 -1 662 -1 c 0
 637 -1 618 19 618 43 c 2
 618 207 l 2
 618 272 565 325 500 325 c 0
 435 325 382 272 382 207 c 2
 382 43 l 2
 382 19 362 -1 337 -1 c 0
 312 -1 293 19 293 43 c 2
 293 752 l 2
 293 776 312 796 337 796 c 0
EndSplineSet
EndChar

StartChar: i
Encoding: 105 105 74
Width: 1000
Flags: HW
HStem: -1 89<387.94 454.5 543.5 612.06> 325 89<387.94 454.5> 486 117<429.94 537.06>
VStem: 381.5 237<5.48056 81.7927> 423.5 120<492.481 596.793> 454.5 89<88 325>
LayerCount: 2
Fore
SplineSet
467.5 603 m 2xe8
 499.5 603 l 2
 523.5 603 543.5 584 543.5 559 c 2
 543.5 531 l 2
 543.5 506 523.5 486 499.5 486 c 2
 467.5 486 l 2
 443.5 486 423.5 506 423.5 531 c 2
 423.5 559 l 2
 423.5 584 443.5 603 467.5 603 c 2xe8
425.5 414 m 2
 501.5 414 l 2
 523.5 414 543.5 397 543.5 375 c 2
 543.5 98 l 2xe4
 543.5 92 546.5 88 554.5 88 c 2
 574.5 88 l 2
 598.5 88 618.5 69 618.5 44 c 0
 618.5 19 598.5 -1 574.5 -1 c 2
 425.5 -1 l 2
 401.5 -1 381.5 19 381.5 44 c 0xf0
 381.5 69 401.5 88 425.5 88 c 2
 445.5 88 l 2
 451.5 88 454.5 92 454.5 98 c 2
 454.5 317 l 2xe4
 454.5 321 450.5 325 446.5 325 c 2
 425.5 325 l 2
 401.5 325 381.5 345 381.5 370 c 0xf0
 381.5 395 401.5 414 425.5 414 c 2
EndSplineSet
EndChar

StartChar: j
Encoding: 106 106 75
Width: 1000
Flags: HW
HStem: -385 89<433.483 567.25> 326 88<550.895 618> 487 117<592.895 701.105>
VStem: 293 89<-245.163 -140.44> 545 162<332.207 407.793> 587 120<493.207 597.793> 618 89<-244.266 326>
LayerCount: 2
Fore
SplineSet
631 604 m 2xf4
 663 604 l 2
 687 604 707 585 707 560 c 2
 707 531 l 2
 707 506 687 487 663 487 c 2
 631 487 l 2
 607 487 587 506 587 531 c 2
 587 560 l 2
 587 585 607 604 631 604 c 2xf4
500 -385 m 0
 412 -385 295 -322 293 -178 c 0
 293 -154 312 -134 337 -134 c 0
 362 -134 382 -154 382 -178 c 0
 382 -243 435 -296 500 -296 c 0
 565 -296 618 -243 618 -178 c 0
 618 -13 618 152 618 317 c 0xf2
 618 321 614 326 610 326 c 2
 589 326 l 2
 565 326 545 345 545 370 c 0
 545 395 565 414 589 414 c 2
 664 414 l 2
 686 414 707 397 707 375 c 0xf8
 707 191 707 6 707 -178 c 0xf2
 707 -292 614 -385 500 -385 c 0
EndSplineSet
EndChar

StartChar: k
Encoding: 107 107 76
Width: 1000
Flags: HW
HStem: 1 22G<322.5 347.5 659.5 675.5> 777 20G<322.5 347.5>
VStem: 291 89<7.43994 209.092 405 790.56>
LayerCount: 2
Fore
SplineSet
709 46 m 0
 709 21 687 2 664 2 c 0
 655 2 645 5 637 11 c 2
 385 209 l 2
 382 211 380 210 380 207 c 2
 380 45 l 2
 380 21 360 1 335 1 c 0
 310 1 291 21 291 45 c 2
 291 753 l 2
 291 777 310 797 335 797 c 0
 360 797 380 777 380 753 c 2
 380 405 l 2
 380 397 391 408 391 408 c 1
 555 555 l 2
 563 563 575 567 585 567 c 0
 608 567 629 546 629 522 c 0
 629 510 624 498 614 489 c 2
 411 307 l 2
 409 305 410 302 412 300 c 2
 692 81 l 2
 703 72 709 59 709 46 c 0
EndSplineSet
EndChar

StartChar: l
Encoding: 108 108 77
Width: 1000
Flags: HW
HStem: -3 89<548.282 620.56> 709 89<379.44 451.718>
VStem: 456 88<89.2818 705.718>
LayerCount: 2
Fore
SplineSet
456 667 m 2
 456 700 434 709 422 709 c 2
 417 709 l 2
 393 709 373 728 373 753 c 0
 373 778 393 798 417 798 c 0
 487 798 544 741 544 671 c 2
 544 124 l 2
 544 104 560 86 578 86 c 2
 583 86 l 2
 607 86 627 67 627 42 c 0
 627 17 607 -3 583 -3 c 0
 513 -3 456 54 456 124 c 2
 456 667 l 2
EndSplineSet
EndChar

StartChar: m
Encoding: 109 109 78
Width: 1000
Flags: HW
HStem: 1 21G<235.482 260.482 487.482 512.482 738.482 763.482> 326 88<316.877 429.712 567.705 683.581>
VStem: 203.982 89<7.43994 302.032> 455.982 89<7.43994 300.074> 706.982 89<7.43994 302.761>
LayerCount: 2
Fore
SplineSet
247.981445312 415 m 0
 265.981445312 415 280.981445312 406 287.981445312 391 c 1
 312.981445312 406 342.981445312 414 373.981445312 414 c 0
 423.981445312 414 468.981445312 392 499.981445312 358 c 1
 530.981445312 392 575.981445312 414 625.981445312 414 c 0
 717.981445312 414 797.981445312 353 795.981445312 249 c 2
 795.981445312 45 l 2
 795.981445312 21 775.981445312 1 750.981445312 1 c 0
 725.981445312 1 706.981445312 21 706.981445312 45 c 2
 706.981445312 256 l 2
 706.981445312 297 666.981445312 326 625.981445312 326 c 0
 585.981445312 326 543.981445312 296 544.981445312 259 c 1
 544.981445312 45 l 2
 544.981445312 21 524.981445312 1 499.981445312 1 c 0
 474.981445312 1 455.981445312 21 455.981445312 45 c 2
 455.981445312 252 l 2
 455.981445312 292 416.981445312 326 373.981445312 326 c 0
 333.981445312 326 292.981445312 294 292.981445312 259 c 2
 292.981445312 45 l 2
 292.981445312 21 272.981445312 1 247.981445312 1 c 0
 222.981445312 1 203.981445312 21 203.981445312 45 c 2
 203.981445312 371 l 2
 203.981445312 395 222.981445312 415 247.981445312 415 c 0
EndSplineSet
EndChar

StartChar: n
Encoding: 110 110 79
Width: 1000
Flags: HW
HStem: -1 21G<324.496 349.496 649.496 674.496> 325 88<432.386 566.715>
VStem: 292.996 89<5.43994 275.235> 617.996 89<5.43994 274.45>
LayerCount: 2
Fore
SplineSet
336.99609375 414 m 0
 359.99609375 414 377.99609375 397 380.99609375 376 c 1
 414.99609375 400 455.99609375 413 499.99609375 413 c 0
 610.99609375 413 707.99609375 323 706.99609375 217 c 1
 706.99609375 43 l 2
 706.99609375 19 686.99609375 -1 661.99609375 -1 c 0
 636.99609375 -1 617.99609375 19 617.99609375 43 c 2
 617.99609375 207 l 2
 617.99609375 272 564.99609375 325 499.99609375 325 c 0
 434.99609375 325 381.99609375 272 381.99609375 207 c 2
 381.99609375 43 l 2
 381.99609375 19 361.99609375 -1 336.99609375 -1 c 0
 311.99609375 -1 292.99609375 19 292.99609375 43 c 2
 292.99609375 370 l 2
 292.99609375 394 311.99609375 414 336.99609375 414 c 0
EndSplineSet
EndChar

StartChar: o
Encoding: 111 111 80
Width: 1000
Flags: HW
HStem: 1 89<432.75 567.25> 326 89<432.75 567.25>
VStem: 293 89<140.75 275.25> 618 89<140.75 275.25>
LayerCount: 2
Fore
SplineSet
500 415 m 0
 614 415 707 322 707 208 c 0
 707 94 614 1 500 1 c 0
 386 1 293 94 293 208 c 0
 293 322 386 415 500 415 c 0
500 326 m 0
 435 326 382 273 382 208 c 0
 382 143 435 90 500 90 c 0
 565 90 618 143 618 208 c 0
 618 273 565 326 500 326 c 0
EndSplineSet
EndChar

StartChar: p
Encoding: 112 112 81
Width: 1000
Flags: HW
HStem: -386 21G<324.5 349.5> 0 89<432.243 567.25> 325 89<431.958 567.25>
VStem: 293 89<-379.56 37 139.244 275.439> 618 89<139.75 274.25>
LayerCount: 2
Fore
SplineSet
500 414 m 0
 614 414 707 321 707 207 c 0
 707 93 614 0 500 0 c 0
 456 0 416 14 382 37 c 1
 382 -342 l 2
 382 -366 362 -386 337 -386 c 0
 312 -386 293 -366 293 -342 c 2
 293 369 l 2
 293 393 312 413 337 413 c 0
 359 413 377 398 381 377 c 1
 415 401 456 414 500 414 c 0
500 325 m 0
 436 325 384 275 382 212 c 1
 382 203 l 1
 384 140 436 89 500 89 c 0
 565 89 618 142 618 207 c 0
 618 272 565 325 500 325 c 0
EndSplineSet
EndChar

StartChar: q
Encoding: 113 113 82
Width: 1000
Flags: HW
HStem: -384 89<675.607 784.56> 1 89<348.75 483.757> 326 89<348.75 484.042>
VStem: 209 89<140.75 275.25> 534 89<-242.768 38 140.244 276.439>
LayerCount: 2
Fore
SplineSet
741 -384 m 2
 629 -384 535 -294 534 -183 c 1
 534 38 l 1
 500 15 460 1 416 1 c 0
 302 1 209 94 209 208 c 0
 209 322 302 415 416 415 c 0
 460 415 501 402 535 378 c 1
 539 399 557 414 579 414 c 0
 604 414 623 394 623 370 c 2
 623 -177 l 2
 623 -242 676 -295 741 -295 c 2
 747 -295 l 2
 771 -295 791 -314 791 -339 c 0
 791 -364 771 -384 747 -384 c 2
 741 -384 l 2
416 326 m 0
 351 326 298 273 298 208 c 0
 298 143 351 90 416 90 c 0
 480 90 532 141 534 204 c 1
 534 213 l 1
 532 276 480 326 416 326 c 0
EndSplineSet
EndChar

StartChar: r
Encoding: 114 114 83
Width: 1000
Flags: HW
HStem: -2 21G<339 364> 323 89<446.89 583.009>
VStem: 307.5 89<4.43994 273.235>
LayerCount: 2
Fore
SplineSet
692.5 300 m 0
 692.5 277 672.5 254 647.5 254 c 0
 620.5 254 602.5 284 597.5 289 c 0
 576.5 310 547.5 323 514.5 323 c 0
 449.5 323 396.5 270 396.5 205 c 2
 396.5 42 l 2
 396.5 18 376.5 -2 351.5 -2 c 0
 326.5 -2 307.5 18 307.5 42 c 2
 307.5 368 l 2
 307.5 392 326.5 412 351.5 412 c 0
 374.5 412 392.5 396 395.5 375 c 1
 429.5 399 470.5 412 514.5 412 c 0
 617.5 412 676.5 338 685.5 324 c 0
 690.5 317 692.5 308 692.5 300 c 0
EndSplineSet
EndChar

StartChar: s
Encoding: 115 115 84
Width: 1000
Flags: HW
HStem: -0 88<430.209 574.222> 162 89<426.749 574.058> 325 88<426.682 571.671>
VStem: 330.5 89<263.035 312.944> 581.5 88<100.056 148.428>
CounterMasks: 1 e0
LayerCount: 2
Fore
SplineSet
661.5 317 m 0
 661.5 294 641.5 273 616.5 273 c 0
 602.5 273 590.5 279 581.5 291 c 0
 571.5 306 556.5 325 500.5 325 c 0
 455.5 325 419.5 308 419.5 288 c 0
 419.5 268 455.5 251 500.5 251 c 0
 594.5 251 669.5 194 669.5 125 c 0
 669.5 56 594.5 0 500.5 0 c 0
 437.5 0 372.5 26 343.5 76 c 0
 338.5 84 336.5 94 336.5 103 c 0
 336.5 126 355.5 146 380.5 146 c 0
 394.5 146 406.5 140 415.5 128 c 0
 427.5 111 438.5 88 500.5 88 c 0
 545.5 88 581.5 105 581.5 125 c 0
 581.5 145 544.5 162 500.5 162 c 0
 406.5 162 330.5 219 330.5 288 c 0
 330.5 357 406.5 413 500.5 413 c 0
 558.5 413 622.5 390 653.5 342 c 0
 659.5 334 661.5 326 661.5 317 c 0
EndSplineSet
EndChar

StartChar: t
Encoding: 116 116 85
Width: 1000
Flags: HW
HStem: -2 89<592.008 701.06> 397 88<298.94 450.5 538.5 700.333>
VStem: 450.5 88<139.232 397 485 617.888>
LayerCount: 2
Fore
SplineSet
538.5 205 m 2
 538.5 154 576.5 87 662.5 87 c 2
 663.5 87 l 2
 687.5 87 707.5 68 707.5 43 c 0
 707.5 18 687.5 -2 663.5 -2 c 2
 657.5 -2 l 2
 545.5 -2 450.5 88 450.5 199 c 2
 450.5 397 l 1
 336.5 397 l 2
 312.5 397 292.5 417 292.5 442 c 0
 292.5 467 312.5 485 336.5 485 c 2
 450.5 485 l 1
 450.5 580 l 2
 450.5 604 469.5 624 494.5 624 c 0
 520.5 624 538.5 603 538.5 580 c 2
 538.5 485 l 1
 663.5 485 l 2
 687.5 485 706.5 467 706.5 442 c 0
 706.5 417 687.5 397 663.5 397 c 2
 538.5 397 l 1
 538.5 205 l 2
EndSplineSet
EndChar

StartChar: u
Encoding: 117 117 86
Width: 1000
Flags: HW
HStem: 1 89<433.285 567.614> 395 20G<325.504 350.504 650.504 675.504>
VStem: 293.004 89<140.458 408.56> 618.004 89<139.765 408.56>
LayerCount: 2
Fore
SplineSet
663.00390625 1 m 0
 640.00390625 1 622.00390625 18 619.00390625 39 c 1
 585.00390625 15 544.00390625 1 500.00390625 1 c 0
 389.00390625 1 292.00390625 92 293.00390625 198 c 1
 293.00390625 371 l 2
 293.00390625 395 313.00390625 415 338.00390625 415 c 0
 363.00390625 415 382.00390625 395 382.00390625 371 c 2
 382.00390625 208 l 2
 382.00390625 143 435.00390625 90 500.00390625 90 c 0
 565.00390625 90 618.00390625 143 618.00390625 208 c 0
 618.00390625 262 618.00390625 317 618.00390625 371 c 0
 618.00390625 395 638.00390625 415 663.00390625 415 c 0
 688.00390625 415 707.00390625 395 707.00390625 371 c 2
 707.00390625 45 l 2
 707.00390625 21 688.00390625 1 663.00390625 1 c 0
EndSplineSet
EndChar

StartChar: v
Encoding: 118 118 87
Width: 1000
Flags: HW
HStem: 0 89<465.73 533.803> 396 20G<271 292.5 707.5 728.5>
LayerCount: 2
Fore
SplineSet
239.5 372 m 0
 239.5 395 257.5 416 284.5 416 c 0
 300.5 416 315.5 407 323.5 392 c 2
 464.5 113 l 2
 471.5 99 483.5 89 500.5 89 c 0
 509.5 89 524.5 92 534.5 110 c 2
 676.5 392 l 2
 684.5 407 699.5 416 715.5 416 c 0
 741.5 416 760.5 394 760.5 372 c 0
 760.5 365 758.5 358 755.5 352 c 2
 607.5 59 l 1
 585.5 23 545.5 0 500.5 0 c 0
 448.5 0 405.5 28 384.5 74 c 1
 244.5 352 l 2
 241.5 358 239.5 365 239.5 372 c 0
EndSplineSet
EndChar

StartChar: w
Encoding: 119 119 88
Width: 1000
Flags: HW
HStem: -0 89<331.737 441.824 558.3 668.263> 396 20G<232.5 257.5 742.5 767.5>
VStem: 201 89<130.941 409.56> 456 88<102.818 232.105> 710 89<130.941 409.56>
CounterMasks: 1 38
LayerCount: 2
Fore
SplineSet
500 43 m 1
 479 22 442 0 394 0 c 0
 287 0 201 86 201 193 c 2
 201 372 l 2
 201 396 220 416 245 416 c 0
 270 416 290 396 290 372 c 2
 290 193 l 2
 290 135 336 89 394 89 c 0
 427 89 456 114 456 147 c 2
 456 194 l 2
 456 218 475 238 500 238 c 0
 525 238 544 218 544 194 c 2
 544 147 l 2
 544 114 573 89 606 89 c 0
 664 89 710 135 710 193 c 0
 710 253 710 312 710 372 c 0
 710 396 730 416 755 416 c 0
 780 416 799 396 799 372 c 2
 799 193 l 2
 799 86 713 0 606 0 c 0
 558 0 522 22 500 43 c 1
EndSplineSet
EndChar

StartChar: x
Encoding: 120 120 89
Width: 1000
Flags: HW
HStem: -1 21G<324 341.5 658.5 676> 397 20G<323 340.5 658.5 676>
LayerCount: 2
Fore
SplineSet
291 372 m 0
 291 396 311 417 335 417 c 0
 346 417 357 413 366 404 c 2
 491 279 l 2
 495 275 504 275 508 279 c 2
 633 404 l 2
 642 413 653 417 664 417 c 0
 688 417 709 396 709 372 c 0
 709 361 704 349 696 341 c 2
 570 215 l 2
 566 211 567 203 571 199 c 2
 696 75 l 2
 705 66 709 54 709 43 c 0
 709 19 688 -1 664 -1 c 0
 653 -1 641 4 633 12 c 2
 507 138 l 2
 504 141 495 141 492 138 c 2
 367 12 l 2
 359 4 347 -1 336 -1 c 0
 312 -1 291 19 291 43 c 0
 291 54 295 66 304 75 c 2
 429 199 l 2
 433 203 434 211 430 215 c 2
 304 341 l 2
 296 349 291 361 291 372 c 0
EndSplineSet
EndChar

StartChar: y
Encoding: 121 121 90
Width: 1000
Flags: HW
HStem: -384 89<432.456 566.674> 1 89<433.285 568.095> 395 20G<325.504 350.504 650.504 675.504>
VStem: 293.004 89<-242.395 -139.44 140.458 408.56> 618.004 89<-245.12 38 139.765 408.56>
LayerCount: 2
Fore
SplineSet
619.00390625 38 m 1
 580.00390625 10 536.00390625 1 500.00390625 1 c 0
 389.00390625 1 292.00390625 92 293.00390625 198 c 1
 293.00390625 371 l 2
 293.00390625 395 313.00390625 415 338.00390625 415 c 0
 363.00390625 415 382.00390625 395 382.00390625 371 c 2
 382.00390625 208 l 2
 382.00390625 143 435.00390625 90 500.00390625 90 c 0
 565.00390625 90 618.00390625 143 618.00390625 208 c 0
 618.00390625 262 618.00390625 317 618.00390625 371 c 0
 618.00390625 395 638.00390625 415 663.00390625 415 c 0
 688.00390625 415 707.00390625 395 707.00390625 371 c 2
 707.00390625 -186 l 2
 707.00390625 -296 611.00390625 -384 500.00390625 -384 c 0
 407.00390625 -384 295.00390625 -316 293.00390625 -177 c 0
 293.00390625 -153 312.00390625 -133 337.00390625 -133 c 0
 362.00390625 -133 382.00390625 -153 382.00390625 -177 c 0
 382.00390625 -242 435.00390625 -295 500.00390625 -295 c 0
 565.00390625 -295 618.00390625 -242 618.00390625 -177 c 2
 618.00390625 -173 l 1
 619.00390625 38 l 1
EndSplineSet
EndChar

StartChar: z
Encoding: 122 122 91
Width: 1000
Flags: HW
HStem: -0 88<443.5 701.605> 325 88<298.395 556.5>
VStem: 372.5 249<173.481 246.622>
LayerCount: 2
Fore
SplineSet
336.5 413 m 2
 663.5 413 l 2
 687.5 413 707.5 394 707.5 369 c 0
 707.5 344 688.5 332 685.5 329 c 2
 603.5 247 l 1
 614.5 239 621.5 227 621.5 212 c 0
 621.5 187 601.5 167 577.5 167 c 2
 523.5 167 l 1
 443.5 88 l 1
 663.5 88 l 2
 687.5 88 707.5 69 707.5 44 c 0
 707.5 19 687.5 0 663.5 0 c 2
 336.5 0 l 2
 312.5 0 292.5 19 292.5 44 c 0
 292.5 56 297.5 67 305.5 75 c 2
 400.5 170 l 1
 384.5 177 372.5 193 372.5 212 c 0
 372.5 237 392.5 256 416.5 256 c 2
 486.5 256 l 1
 556.5 325 l 1
 336.5 325 l 2
 312.5 325 292.5 344 292.5 369 c 0
 292.5 394 312.5 413 336.5 413 c 2
EndSplineSet
EndChar

StartChar: braceleft
Encoding: 123 123 92
Width: 1000
Flags: HW
HStem: -133 89<560.807 676.06> 294 89<408.137 459.193> 407 89<408.137 459.193> 834 89<560.807 676.06>
VStem: 465.5 89<-37.6925 289.797 500.203 827.693>
LayerCount: 2
Fore
SplineSet
418.5 383 m 2
 427.5 383 l 2
 497.5 383 554.5 325 554.5 255 c 2
 554.5 -6 l 2
 554.5 -27 571.5 -44 592.5 -44 c 2
 638.5 -44 l 2
 662.5 -44 682.5 -63 682.5 -88 c 0
 682.5 -113 662.5 -133 638.5 -133 c 2
 592.5 -133 l 2
 522.5 -133 465.5 -76 465.5 -6 c 2
 465.5 256 l 2
 465.5 277 447.5 294 426.5 294 c 2
 418.5 294 l 2
 362.5 294 317.5 339 317.5 395 c 0
 317.5 451 362.5 496 418.5 496 c 2
 426.5 496 l 2
 447.5 496 465.5 513 465.5 534 c 2
 465.5 796 l 2
 465.5 866 522.5 923 592.5 923 c 2
 638.5 923 l 2
 662.5 923 682.5 903 682.5 878 c 0
 682.5 853 662.5 834 638.5 834 c 2
 592.5 834 l 2
 571.5 834 554.5 817 554.5 796 c 2
 554.5 535 l 2
 554.5 465 497.5 407 427.5 407 c 2
 418.5 407 l 2
 411.5 407 406.5 402 406.5 395 c 0
 406.5 388 411.5 383 418.5 383 c 2
EndSplineSet
EndChar

StartChar: bar
Encoding: 124 124 93
Width: 1000
Flags: HW
HStem: -1 21G<487 512> 776 20G<487 512>
VStem: 455.5 89<5.43994 789.56>
LayerCount: 2
Fore
SplineSet
499.5 796 m 0
 524.5 796 544.5 776 544.5 752 c 2
 544.5 43 l 2
 544.5 19 524.5 -1 499.5 -1 c 0
 474.5 -1 455.5 19 455.5 43 c 2
 455.5 752 l 2
 455.5 776 474.5 796 499.5 796 c 0
EndSplineSet
EndChar

StartChar: braceright
Encoding: 125 125 94
Width: 1000
Flags: HW
HStem: -133 89<323.94 442.218> 294 89<538.782 591.863> 407 89<538.782 591.863> 834 89<323.94 442.218>
VStem: 446.5 88<-37.6925 289.797 500.203 827.693>
LayerCount: 2
Fore
SplineSet
581.5 407 m 2
 573.5 407 l 2
 503.5 407 446.5 465 446.5 535 c 2
 446.5 796 l 2
 446.5 817 428.5 834 407.5 834 c 2
 361.5 834 l 2
 337.5 834 317.5 853 317.5 878 c 0
 317.5 903 337.5 923 361.5 923 c 2
 407.5 923 l 2
 477.5 923 534.5 866 534.5 796 c 2
 534.5 534 l 2
 534.5 513 552.5 496 573.5 496 c 2
 581.5 496 l 2
 637.5 496 682.5 451 682.5 395 c 0
 682.5 339 637.5 294 581.5 294 c 2
 573.5 294 l 2
 552.5 294 534.5 277 534.5 256 c 2
 534.5 -6 l 2
 534.5 -76 477.5 -133 407.5 -133 c 2
 361.5 -133 l 2
 337.5 -133 317.5 -113 317.5 -88 c 0
 317.5 -63 337.5 -44 361.5 -44 c 2
 407.5 -44 l 2
 428.5 -44 446.5 -27 446.5 -6 c 2
 446.5 255 l 2
 446.5 325 503.5 383 573.5 383 c 2
 581.5 383 l 2
 588.5 383 593.5 388 593.5 395 c 0
 593.5 402 588.5 407 581.5 407 c 2
EndSplineSet
EndChar

StartChar: asciitilde
Encoding: 126 126 95
Width: 1000
Flags: HW
HStem: 448 89<545.284 613.55> 568 89<386.076 453.716>
VStem: 293 89<471.421 561.675> 618 89<542.403 633.241>
LayerCount: 2
Fore
SplineSet
293 529 m 0
 293 593 343 657 420 657 c 0
 475 657 526 621 542 565 c 0
 547 548 562 537 579 537 c 0
 602 537 618 556 618 575 c 0
 618 583 615 590 615 598 c 0
 615 620 632 642 659 642 c 0
 693 642 707 611 707 575 c 0
 707 511 656 448 579 448 c 0
 524 448 473 484 457 540 c 0
 452 557 437 568 420 568 c 0
 397 568 382 548 382 529 c 0
 382 521 385 514 385 506 c 0
 385 484 368 463 341 463 c 0
 307 463 293 493 293 529 c 0
EndSplineSet
EndChar

StartChar: exclamdown
Encoding: 161 161 96
Width: 1000
Flags: HW
HStem: 2 21G<487.5 512.5> 676 62<486.272 513.728> 766 62<486.272 513.728>
VStem: 424 62<738.272 765.728> 456 89<8.43994 611.56> 514 62<738.272 765.728>
LayerCount: 2
Fore
SplineSet
500 2 m 0xe8
 475 2 456 22 456 46 c 2
 456 574 l 2
 456 598 475 618 500 618 c 0
 525 618 545 598 545 574 c 2
 545 46 l 2
 545 22 525 2 500 2 c 0xe8
500 676 m 0
 458 676 424 710 424 752 c 0
 424 794 458 828 500 828 c 0
 542 828 576 794 576 752 c 0xf4
 576 710 542 676 500 676 c 0
500 738 m 0
 508 738 514 744 514 752 c 0
 514 760 508 766 500 766 c 0
 492 766 486 760 486 752 c 0
 486 744 492 738 500 738 c 0
EndSplineSet
EndChar

StartChar: cent
Encoding: 162 162 97
Width: 1000
Flags: HW
VStem: 318.5 89<140.959 277.291> 485.5 89<-71.5601 11.3094 101 317 406.615 489.56>
LayerCount: 2
Fore
SplineSet
632.5 134 m 0
 659.5 134 680.5 112 680.5 86 c 0
 680.5 77 677.5 69 671.5 63 c 0
 645.5 36 612.5 17 574.5 8 c 1
 574.5 -34 l 2
 574.5 -58 554.5 -78 529.5 -78 c 0
 504.5 -78 485.5 -58 485.5 -34 c 2
 485.5 6 l 1
 390.5 25 318.5 108 318.5 209 c 0
 318.5 310 390.5 393 485.5 412 c 1
 485.5 452 l 2
 485.5 476 504.5 496 529.5 496 c 0
 554.5 496 574.5 476 574.5 452 c 2
 574.5 411 l 1
 612.5 402 645.5 383 671.5 356 c 0
 678.5 349 681.5 339 681.5 331 c 0
 681.5 303 660.5 284 632.5 284 c 0
 624.5 284 616.5 287 609.5 293 c 0
 599.5 303 587.5 311 574.5 317 c 1
 574.5 101 l 1
 587.5 107 599.5 116 609.5 126 c 0
 614.5 132 623.5 134 632.5 134 c 0
485.5 321 m 1
 439.5 305 407.5 260 407.5 209 c 0
 407.5 158 439.5 114 485.5 98 c 1
 485.5 321 l 1
EndSplineSet
EndChar

StartChar: brokenbar
Encoding: 166 166 98
Width: 1000
Flags: HW
VStem: 455.5 89<-19.5601 354.56 462.44 808.56>
LayerCount: 2
Fore
SplineSet
499.5 815 m 0
 524.5 815 544.5 795 544.5 771 c 2
 544.5 500 l 2
 544.5 476 524.5 456 499.5 456 c 0
 474.5 456 455.5 476 455.5 500 c 2
 455.5 771 l 2
 455.5 795 474.5 815 499.5 815 c 0
499.5 361 m 0
 524.5 361 544.5 341 544.5 317 c 2
 544.5 18 l 2
 544.5 -6 524.5 -26 499.5 -26 c 0
 474.5 -26 455.5 -6 455.5 18 c 2
 455.5 317 l 2
 455.5 341 474.5 361 499.5 361 c 0
EndSplineSet
EndChar

StartChar: section
Encoding: 167 167 99
Width: 1000
Flags: HW
HStem: -384 88<434.65 565.503> 1 88<433.161 567.202> 326 89<432.268 567.009> 711 88<434.497 565.144>
VStem: 293 89<-244.163 -139.44 141.347 275.8 377 660.12> 618 89<-245.12 38 140.297 274.266 555.167 659.517>
LayerCount: 2
Fore
SplineSet
500 1 m 0
 387 1 293 93 293 208 c 2
 293 601 l 2
 293 711 389 799 500 799 c 0
 587 799 705 737 707 592 c 0
 707 568 688 549 663 549 c 0
 638 549 618 568 618 592 c 0
 618 657 565 711 500 711 c 0
 435 711 382 657 382 592 c 0
 382 520 382 449 382 377 c 1
 412 397 449 415 500 415 c 0
 615 415 707 322 707 208 c 2
 707 -186 l 2
 707 -296 611 -384 500 -384 c 0
 412 -384 295 -321 293 -177 c 0
 293 -153 312 -133 337 -133 c 0
 362 -133 382 -153 382 -177 c 0
 382 -242 435 -296 500 -296 c 0
 565 -296 618 -242 618 -177 c 0
 618 -105 618 -34 618 38 c 1
 590 19 551 1 500 1 c 0
618 208 m 0
 618 275 563 326 500 326 c 0
 433 326 382 272 382 208 c 0
 382 141 436 89 500 89 c 0
 567 89 618 145 618 208 c 0
EndSplineSet
EndChar

StartChar: copyright
Encoding: 169 169 100
Width: 1000
Flags: HW
HStem: 141 88<397.75 603.203> 283 89<434.25 570.355> 395 20G<604 622> 609 88<435.417 568.37> 751 89<397.75 603.203>
VStem: 150.5 89<387.297 592.75> 294.5 89<422.75 557.42> 761.5 88<387.297 592.75>
LayerCount: 2
Fore
SplineSet
500.5 840 m 0
 693.5 840 849.5 683 849.5 490 c 0
 849.5 297 693.5 141 500.5 141 c 0
 307.5 141 150.5 297 150.5 490 c 0
 150.5 683 307.5 840 500.5 840 c 0
500.5 751 m 0
 356.5 751 239.5 634 239.5 490 c 0
 239.5 346 356.5 229 500.5 229 c 0
 644.5 229 761.5 346 761.5 490 c 0
 761.5 634 644.5 751 500.5 751 c 0
608.5 415 m 0
 635.5 415 656.5 393 656.5 367 c 0
 656.5 358 653.5 350 647.5 344 c 0
 610.5 306 558.5 283 501.5 283 c 0
 387.5 283 294.5 376 294.5 490 c 0
 294.5 604 387.5 697 501.5 697 c 0
 558.5 697 610.5 675 647.5 637 c 0
 654.5 630 657.5 620 657.5 612 c 0
 657.5 584 636.5 565 608.5 565 c 0
 600.5 565 592.5 568 585.5 574 c 0
 563.5 595 534.5 609 501.5 609 c 0
 436.5 609 383.5 555 383.5 490 c 0
 383.5 425 436.5 372 501.5 372 c 0
 534.5 372 564.5 385 585.5 407 c 0
 590.5 413 599.5 415 608.5 415 c 0
EndSplineSet
EndChar

StartChar: registered
Encoding: 174 174 101
Width: 1000
Flags: HW
HStem: 141 89<397.75 603.203> 474 89<516.362 551.796> 640 88<476.655 550.641> 752 89<397.75 603.203>
VStem: 150.5 89<388.25 593.75> 387.5 89<279.44 381 563 638.845> 556.5 89<567.397 635.006> 761.5 88<388.25 593.75>
LayerCount: 2
Fore
SplineSet
500.5 841 m 0
 693.5 841 849.5 684 849.5 491 c 0
 849.5 298 693.5 141 500.5 141 c 0
 307.5 141 150.5 298 150.5 491 c 0
 150.5 684 307.5 841 500.5 841 c 0
500.5 752 m 0
 356.5 752 239.5 635 239.5 491 c 0
 239.5 347 356.5 230 500.5 230 c 0
 644.5 230 761.5 347 761.5 491 c 0
 761.5 635 644.5 752 500.5 752 c 0
647.5 317 m 0
 647.5 293 627.5 272 603.5 272 c 0
 592.5 272 581.5 276 572.5 285 c 2
 476.5 381 l 1
 476.5 317 l 2
 476.5 293 456.5 273 431.5 273 c 0
 406.5 273 387.5 293 387.5 317 c 2
 387.5 634 l 2
 387.5 686 429.5 728 481.5 728 c 0
 499.5 728 516.5 728 534.5 728 c 0
 592.5 728 645.5 666 645.5 601 c 0
 645.5 536 597.5 474 534.5 474 c 0
 529.5 474 523.5 474 518.5 474 c 0
 514.5 474 513.5 469 516.5 466 c 2
 634.5 348 l 2
 642.5 340 647.5 328 647.5 317 c 0
481.5 640 m 2
 478.5 640 476.5 637 476.5 634 c 2
 476.5 563 l 1
 518.5 563 l 2
 539.5 563 556.5 580 556.5 601 c 0
 556.5 622 539.5 640 518.5 640 c 2
 481.5 640 l 2
EndSplineSet
EndChar

StartChar: degree
Encoding: 176 176 102
Width: 1000
Flags: HW
HStem: 486 88<452.532 547.468> 707 89<453.075 546.925>
VStem: 345 89<592.578 687.787> 566 89<592.578 687.787>
LayerCount: 2
Fore
SplineSet
500 796 m 0
 586 796 655 726 655 640 c 0
 655 554 586 486 500 486 c 0
 414 486 345 554 345 640 c 0
 345 726 414 796 500 796 c 0
500 707 m 0
 464 707 434 676 434 640 c 0
 434 604 464 574 500 574 c 0
 536 574 566 604 566 640 c 0
 566 676 536 707 500 707 c 0
EndSplineSet
EndChar

StartChar: plusminus
Encoding: 177 177 103
Width: 1000
Flags: HW
HStem: 51 88<299.395 455.5 544.5 700.333> 247 88<299.395 453.777 546.33 700.333>
VStem: 455.5 89<139 245.17 336.83 491.56>
LayerCount: 2
Fore
SplineSet
500.5 498 m 0
 525.5 498 544.5 478 544.5 454 c 2
 544.5 365 l 2
 544.5 351 560.5 335 574.5 335 c 2
 662.5 335 l 2
 686.5 335 706.5 316 706.5 291 c 0
 706.5 266 687.5 247 663.5 247 c 2
 574.5 247 l 2
 560.5 247 544.5 231 544.5 217 c 2
 544.5 159 l 2
 544.5 150 555.5 139 564.5 139 c 2
 662.5 139 l 2
 686.5 139 706.5 120 706.5 95 c 0
 706.5 70 687.5 51 663.5 51 c 2
 337.5 51 l 2
 313.5 51 293.5 70 293.5 95 c 0
 293.5 120 313.5 139 337.5 139 c 2
 436.5 139 l 2
 445.5 139 455.5 150 455.5 159 c 2
 455.5 217 l 2
 455.5 231 440.5 247 426.5 247 c 2
 337.5 247 l 2
 313.5 247 293.5 266 293.5 291 c 0
 293.5 316 313.5 335 337.5 335 c 2
 426.5 335 l 2
 440.5 335 455.5 351 455.5 365 c 2
 455.5 454 l 2
 455.5 478 475.5 498 500.5 498 c 0
EndSplineSet
EndChar

StartChar: questiondown
Encoding: 191 191 104
Width: 1000
Flags: HW
HStem: -3 89<432.75 567.25> 674 62<487.272 514.728> 764 62<487.272 514.728>
VStem: 293 89<136.75 272.443> 425 62<736.272 763.728> 456 89<405.666 609.56> 515 62<736.272 763.728> 618 89<136.75 279.359>
LayerCount: 2
Fore
SplineSet
649 311 m 0xf5
 695 311 707 248 707 204 c 0
 707 90 614 -3 500 -3 c 0
 386 -3 293 90 293 204 c 0
 293 290 346 362 415 393 c 0
 437 402 456 426 456 454 c 2
 456 572 l 2
 456 596 476 616 501 616 c 0
 526 616 545 596 545 572 c 2
 545 454 l 2
 545 390 507 337 454 313 c 0
 412 295 382 254 382 204 c 0
 382 139 435 86 500 86 c 0
 565 86 618 139 618 204 c 0
 618 220 615 236 609 250 c 0
 607 256 605 261 605 267 c 0
 605 289 622 311 649 311 c 0xf5
501 674 m 0
 459 674 425 708 425 750 c 0
 425 792 459 826 501 826 c 0
 543 826 577 792 577 750 c 0xfb
 577 708 543 674 501 674 c 0
501 736 m 0
 509 736 515 742 515 750 c 0
 515 758 509 764 501 764 c 0
 493 764 487 758 487 750 c 0
 487 742 493 736 501 736 c 0
EndSplineSet
EndChar

StartChar: trademark
Encoding: 8482 8482 105
Width: 1000
Flags: HW
HStem: 561 88<42.4215 193.982 281.982 371.982 486.244 597.712 737.447 851.842> 776 20G<225.482 250.982>
VStem: 193.982 88<373.14 561 649 789.888> 371.982 89<324 536.032> 623.982 89<237.44 534.074> 874.982 89<237.44 536.846>
LayerCount: 2
Fore
SplineSet
237.981445312 796 m 0
 263.981445312 796 281.981445312 775 281.981445312 752 c 2
 281.981445312 649 l 1
 415.981445312 649 l 2
 433.981445312 649 448.981445312 640 455.981445312 625 c 1
 480.981445312 640 510.981445312 648 541.981445312 648 c 0
 591.981445312 648 636.981445312 626 667.981445312 592 c 1
 698.981445312 626 743.981445312 648 793.981445312 648 c 0
 885.981445312 648 965.981445312 587 963.981445312 483 c 2
 963.981445312 275 l 2
 963.981445312 251 943.981445312 231 918.981445312 231 c 0
 893.981445312 231 874.981445312 251 874.981445312 275 c 2
 875.981445312 490 l 2
 875.981445312 531 834.981445312 560 793.981445312 560 c 0
 753.981445312 560 711.981445312 530 712.981445312 493 c 1
 712.981445312 275 l 2
 712.981445312 251 692.981445312 231 667.981445312 231 c 0
 642.981445312 231 623.981445312 251 623.981445312 275 c 2
 623.981445312 486 l 2
 623.981445312 526 584.981445312 560 541.981445312 560 c 0
 501.981445312 560 460.981445312 528 460.981445312 493 c 2
 460.981445312 275 l 2
 460.981445312 251 440.981445312 231 415.981445312 231 c 2
 400.981445312 231 l 2
 288.981445312 231 193.981445312 322 193.981445312 433 c 2
 193.981445312 561 l 1
 79.9814453125 561 l 2
 55.9814453125 561 35.9814453125 581 35.9814453125 606 c 0
 35.9814453125 631 55.9814453125 649 79.9814453125 649 c 2
 193.981445312 649 l 1
 193.981445312 752 l 2
 193.981445312 776 212.981445312 796 237.981445312 796 c 0
281.981445312 561 m 1
 281.981445312 438 l 2
 281.981445312 383 319.981445312 337 371.981445312 324 c 1
 371.981445312 561 l 1
 281.981445312 561 l 1
EndSplineSet
EndChar
